<svg width="143" height="9" viewBox="0 0 143 9" fill="none" xmlns="http://www.w3.org/2000/svg">
<path d="M-1.49012e-07 8.82001V0.180007H1.446V4.18801L4.896 0.180007H6.672L2.958 4.41601L6.924 8.82001H5.088L1.446 4.78801V8.82001H-1.49012e-07ZM10.4548 9.00001C9.59078 9.00001 8.85078 8.81201 8.23478 8.43601C7.61878 8.05601 7.14478 7.52801 6.81278 6.85201C6.48478 6.17601 6.32078 5.39201 6.32078 4.50001C6.32078 3.60801 6.48478 2.82401 6.81278 2.14801C7.14478 1.47201 7.61878 0.946007 8.23478 0.570007C8.85078 0.190007 9.59078 7.15256e-06 10.4548 7.15256e-06C11.3188 7.15256e-06 12.0588 0.190007 12.6748 0.570007C13.2948 0.946007 13.7688 1.47201 14.0968 2.14801C14.4288 2.82401 14.5948 3.60801 14.5948 4.50001C14.5948 5.39201 14.4288 6.17601 14.0968 6.85201C13.7688 7.52801 13.2948 8.05601 12.6748 8.43601C12.0588 8.81201 11.3188 9.00001 10.4548 9.00001ZM10.4548 7.63801C11.0348 7.64201 11.5168 7.51401 11.9008 7.25401C12.2888 6.99401 12.5788 6.62801 12.7708 6.15601C12.9668 5.68401 13.0648 5.13201 13.0648 4.50001C13.0648 3.86801 12.9668 3.32001 12.7708 2.85601C12.5788 2.38801 12.2888 2.02401 11.9008 1.76401C11.5168 1.50401 11.0348 1.37001 10.4548 1.36201C9.87478 1.35801 9.39278 1.48601 9.00878 1.74601C8.62478 2.00601 8.33478 2.37201 8.13878 2.84401C7.94678 3.31601 7.85078 3.86801 7.85078 4.50001C7.85078 5.13201 7.94678 5.68201 8.13878 6.15001C8.33078 6.61401 8.61878 6.97601 9.00278 7.23601C9.39078 7.49601 9.87478 7.63001 10.4548 7.63801ZM18.4871 9.00001C17.8551 9.00001 17.2851 8.89001 16.7771 8.67001C16.2731 8.45001 15.8571 8.13601 15.5291 7.72801C15.2051 7.31601 14.9991 6.82801 14.9111 6.26401L16.4111 6.03601C16.5391 6.54801 16.8011 6.94401 17.1971 7.22401C17.5971 7.50401 18.0571 7.64401 18.5771 7.64401C18.8851 7.64401 19.1751 7.59601 19.4471 7.50001C19.7191 7.40401 19.9391 7.26401 20.1071 7.08001C20.2791 6.89601 20.3651 6.67001 20.3651 6.40201C20.3651 6.28201 20.3451 6.17201 20.3051 6.07201C20.2651 5.96801 20.2051 5.87601 20.1251 5.79601C20.0491 5.71601 19.9491 5.64401 19.8251 5.58001C19.7051 5.51201 19.5651 5.45401 19.4051 5.40601L17.1731 4.74601C16.9811 4.69001 16.7731 4.61601 16.5491 4.52401C16.3291 4.42801 16.1191 4.29801 15.9191 4.13401C15.7231 3.96601 15.5611 3.75401 15.4331 3.49801C15.3091 3.23801 15.2471 2.91801 15.2471 2.53801C15.2471 1.98201 15.3871 1.51601 15.6671 1.14001C15.9511 0.760007 16.3311 0.476007 16.8071 0.288007C17.2871 0.100007 17.8191 0.00800681 18.4031 0.012007C18.9951 0.0160067 19.5231 0.118007 19.9871 0.318007C20.4511 0.514007 20.8391 0.800007 21.1511 1.17601C21.4631 1.55201 21.6831 2.00601 21.8111 2.53801L20.2571 2.80801C20.1931 2.50401 20.0691 2.24601 19.8851 2.03401C19.7051 1.81801 19.4831 1.65401 19.2191 1.54201C18.9591 1.43001 18.6811 1.37001 18.3851 1.36201C18.0971 1.35801 17.8291 1.40201 17.5811 1.49401C17.3371 1.58201 17.1391 1.71001 16.9871 1.87801C16.8391 2.04601 16.7651 2.24201 16.7651 2.46601C16.7651 2.67801 16.8291 2.85201 16.9571 2.98801C17.0851 3.12001 17.2431 3.22601 17.4311 3.30601C17.6231 3.38201 17.8171 3.44601 18.0131 3.49801L19.5611 3.93001C19.7731 3.98601 20.0111 4.06201 20.2751 4.15801C20.5391 4.25401 20.7931 4.38801 21.0371 4.56001C21.2811 4.73201 21.4811 4.95801 21.6371 5.23801C21.7971 5.51801 21.8771 5.87401 21.8771 6.30601C21.8771 6.75401 21.7831 7.14801 21.5951 7.48801C21.4111 7.82401 21.1611 8.10401 20.8451 8.32801C20.5291 8.55201 20.1671 8.72001 19.7591 8.83201C19.3551 8.94401 18.9311 9.00001 18.4871 9.00001ZM24.7518 8.82001V1.53601H21.9558V0.180007H28.9938V1.53601H26.1978V8.82001H24.7518ZM29.5731 8.82001V0.180007H31.0191V8.82001H29.5731ZM31.7164 8.82001L34.4404 0.180007H36.5584L39.2824 8.82001H37.7944L35.3224 1.06801H35.6464L33.2044 8.82001H31.7164ZM33.2344 6.94801V5.59801H37.7704V6.94801H33.2344ZM39.8672 8.82001V0.180007H41.3312L45.3392 6.27001V0.180007H46.8032V8.82001H45.3392L41.3312 2.73001V8.82001H39.8672ZM50.0565 8.82001V1.53601H47.2605V0.180007H54.2985V1.53601H51.5025V8.82001H50.0565ZM57.2211 8.82001V5.28001L54.2811 0.180007H55.9671L57.9531 3.62401L59.9331 0.180007H61.6191L58.6851 5.28001V8.82001H57.2211ZM61.957 8.82001V0.180007H63.421L67.429 6.27001V0.180007H68.893V8.82001H67.429L63.421 2.73001V8.82001H61.957ZM77.529 9.00001C76.665 9.00001 75.925 8.81201 75.309 8.43601C74.693 8.05601 74.219 7.52801 73.887 6.85201C73.559 6.17601 73.395 5.39201 73.395 4.50001C73.395 3.60801 73.559 2.82401 73.887 2.14801C74.219 1.47201 74.693 0.946007 75.309 0.570007C75.925 0.190007 76.665 7.15256e-06 77.529 7.15256e-06C78.393 7.15256e-06 79.133 0.190007 79.749 0.570007C80.369 0.946007 80.843 1.47201 81.171 2.14801C81.503 2.82401 81.669 3.60801 81.669 4.50001C81.669 5.39201 81.503 6.17601 81.171 6.85201C80.843 7.52801 80.369 8.05601 79.749 8.43601C79.133 8.81201 78.393 9.00001 77.529 9.00001ZM77.529 7.63801C78.109 7.64201 78.591 7.51401 78.975 7.25401C79.363 6.99401 79.653 6.62801 79.845 6.15601C80.041 5.68401 80.139 5.13201 80.139 4.50001C80.139 3.86801 80.041 3.32001 79.845 2.85601C79.653 2.38801 79.363 2.02401 78.975 1.76401C78.591 1.50401 78.109 1.37001 77.529 1.36201C76.949 1.35801 76.467 1.48601 76.083 1.74601C75.699 2.00601 75.409 2.37201 75.213 2.84401C75.021 3.31601 74.925 3.86801 74.925 4.50001C74.925 5.13201 75.021 5.68201 75.213 6.15001C75.405 6.61401 75.693 6.97601 76.077 7.23601C76.465 7.49601 76.949 7.63001 77.529 7.63801ZM85.5613 9.00001C84.9293 9.00001 84.3593 8.89001 83.8513 8.67001C83.3473 8.45001 82.9313 8.13601 82.6033 7.72801C82.2793 7.31601 82.0733 6.82801 81.9853 6.26401L83.4853 6.03601C83.6133 6.54801 83.8753 6.94401 84.2713 7.22401C84.6713 7.50401 85.1313 7.64401 85.6513 7.64401C85.9593 7.64401 86.2493 7.59601 86.5213 7.50001C86.7933 7.40401 87.0133 7.26401 87.1813 7.08001C87.3533 6.89601 87.4393 6.67001 87.4393 6.40201C87.4393 6.28201 87.4193 6.17201 87.3793 6.07201C87.3393 5.96801 87.2793 5.87601 87.1993 5.79601C87.1233 5.71601 87.0233 5.64401 86.8993 5.58001C86.7793 5.51201 86.6393 5.45401 86.4793 5.40601L84.2473 4.74601C84.0553 4.69001 83.8473 4.61601 83.6233 4.52401C83.4033 4.42801 83.1933 4.29801 82.9933 4.13401C82.7973 3.96601 82.6353 3.75401 82.5073 3.49801C82.3833 3.23801 82.3213 2.91801 82.3213 2.53801C82.3213 1.98201 82.4613 1.51601 82.7413 1.14001C83.0253 0.760007 83.4053 0.476007 83.8813 0.288007C84.3613 0.100007 84.8933 0.00800681 85.4773 0.012007C86.0693 0.0160067 86.5973 0.118007 87.0613 0.318007C87.5253 0.514007 87.9133 0.800007 88.2253 1.17601C88.5373 1.55201 88.7573 2.00601 88.8853 2.53801L87.3313 2.80801C87.2673 2.50401 87.1433 2.24601 86.9593 2.03401C86.7793 1.81801 86.5573 1.65401 86.2933 1.54201C86.0333 1.43001 85.7553 1.37001 85.4593 1.36201C85.1713 1.35801 84.9033 1.40201 84.6553 1.49401C84.4113 1.58201 84.2133 1.71001 84.0613 1.87801C83.9133 2.04601 83.8393 2.24201 83.8393 2.46601C83.8393 2.67801 83.9033 2.85201 84.0313 2.98801C84.1593 3.12001 84.3173 3.22601 84.5053 3.30601C84.6973 3.38201 84.8913 3.44601 85.0873 3.49801L86.6353 3.93001C86.8473 3.98601 87.0853 4.06201 87.3493 4.15801C87.6133 4.25401 87.8673 4.38801 88.1113 4.56001C88.3553 4.73201 88.5553 4.95801 88.7113 5.23801C88.8713 5.51801 88.9513 5.87401 88.9513 6.30601C88.9513 6.75401 88.8573 7.14801 88.6693 7.48801C88.4853 7.82401 88.2353 8.10401 87.9193 8.32801C87.6033 8.55201 87.2413 8.72001 86.8333 8.83201C86.4293 8.94401 86.0053 9.00001 85.5613 9.00001ZM91.826 8.82001V1.53601H89.03V0.180007H96.068V1.53601H93.272V8.82001H91.826ZM95.693 8.82001L98.417 0.180007H100.535L103.259 8.82001H101.771L99.299 1.06801H99.623L97.181 8.82001H95.693ZM97.211 6.94801V5.59801H101.747V6.94801H97.211ZM103.844 8.82001V0.180007H107.414C107.498 0.180007 107.606 0.184007 107.738 0.192007C107.87 0.196007 107.992 0.208007 108.104 0.228007C108.604 0.304007 109.016 0.470007 109.34 0.726007C109.668 0.982007 109.91 1.30601 110.066 1.69801C110.226 2.08601 110.306 2.51801 110.306 2.99401C110.306 3.46601 110.226 3.89801 110.066 4.29001C109.906 4.67801 109.662 5.00001 109.334 5.25601C109.01 5.51201 108.6 5.67801 108.104 5.75401C107.992 5.77001 107.868 5.78201 107.732 5.79001C107.6 5.79801 107.494 5.80201 107.414 5.80201H105.29V8.82001H103.844ZM105.29 4.45201H107.354C107.434 4.45201 107.524 4.44801 107.624 4.44001C107.724 4.43201 107.816 4.41601 107.9 4.39201C108.14 4.33201 108.328 4.22601 108.464 4.07401C108.604 3.92201 108.702 3.75001 108.758 3.55801C108.818 3.36601 108.848 3.17801 108.848 2.99401C108.848 2.81001 108.818 2.62201 108.758 2.43001C108.702 2.23401 108.604 2.06001 108.464 1.90801C108.328 1.75601 108.14 1.65001 107.9 1.59001C107.816 1.56601 107.724 1.55201 107.624 1.54801C107.524 1.54001 107.434 1.53601 107.354 1.53601H105.29V4.45201ZM111.008 8.82001V0.180007H116.588V1.53601H112.454V3.66601H115.868V5.02201H112.454V7.46401H116.588V8.82001H111.008ZM117.527 8.82001V0.180007H118.991L122.999 6.27001V0.180007H124.463V8.82001H122.999L118.991 2.73001V8.82001H117.527ZM125.641 8.82001V0.180007H127.087V4.18801L130.537 0.180007H132.313L128.599 4.41601L132.565 8.82001H130.729L127.087 4.78801V8.82001H125.641ZM136.095 9.00001C135.231 9.00001 134.491 8.81201 133.875 8.43601C133.259 8.05601 132.785 7.52801 132.453 6.85201C132.125 6.17601 131.961 5.39201 131.961 4.50001C131.961 3.60801 132.125 2.82401 132.453 2.14801C132.785 1.47201 133.259 0.946007 133.875 0.570007C134.491 0.190007 135.231 7.15256e-06 136.095 7.15256e-06C136.959 7.15256e-06 137.699 0.190007 138.315 0.570007C138.935 0.946007 139.409 1.47201 139.737 2.14801C140.069 2.82401 140.235 3.60801 140.235 4.50001C140.235 5.39201 140.069 6.17601 139.737 6.85201C139.409 7.52801 138.935 8.05601 138.315 8.43601C137.699 8.81201 136.959 9.00001 136.095 9.00001ZM136.095 7.63801C136.675 7.64201 137.157 7.51401 137.541 7.25401C137.929 6.99401 138.219 6.62801 138.411 6.15601C138.607 5.68401 138.705 5.13201 138.705 4.50001C138.705 3.86801 138.607 3.32001 138.411 2.85601C138.219 2.38801 137.929 2.02401 137.541 1.76401C137.157 1.50401 136.675 1.37001 136.095 1.36201C135.515 1.35801 135.033 1.48601 134.649 1.74601C134.265 2.00601 133.975 2.37201 133.779 2.84401C133.587 3.31601 133.491 3.86801 133.491 4.50001C133.491 5.13201 133.587 5.68201 133.779 6.15001C133.971 6.61401 134.259 6.97601 134.643 7.23601C135.031 7.49601 135.515 7.63001 136.095 7.63801ZM140.572 8.82001V7.33801H142.054V8.82001H140.572Z" fill="black"/>
</svg>
