<svg width="142" height="9" viewBox="0 0 142 9" fill="none" xmlns="http://www.w3.org/2000/svg">
<path d="M0.900002 6.87599V1.31999C0.900002 1.08799 0.880002 0.915992 0.840002 0.803992C0.800002 0.683991 0.716002 0.603991 0.588002 0.563991C0.468002 0.515991 0.288001 0.491992 0.0480015 0.491992C0.0240015 0.491992 0.0120015 0.467992 0.0120015 0.419992C0.0120015 0.371992 0.0240015 0.347992 0.0480015 0.347992C0.256001 0.347992 0.488001 0.355992 0.744002 0.371992C1 0.379992 1.272 0.383991 1.56 0.383991C1.864 0.383991 2.144 0.379992 2.4 0.371992C2.656 0.355992 2.884 0.347992 3.084 0.347992C3.108 0.347992 3.12 0.371992 3.12 0.419992C3.12 0.467992 3.108 0.491992 3.084 0.491992C2.844 0.491992 2.664 0.515991 2.544 0.563991C2.424 0.611992 2.34 0.695992 2.292 0.815992C2.252 0.935992 2.232 1.11199 2.232 1.34399V6.87599C2.232 7.10799 2.252 7.28399 2.292 7.40399C2.332 7.52399 2.412 7.60399 2.532 7.64399C2.652 7.68399 2.836 7.70399 3.084 7.70399C3.116 7.70399 3.132 7.72799 3.132 7.77599C3.132 7.82399 3.116 7.84799 3.084 7.84799C2.876 7.84799 2.644 7.84399 2.388 7.83599C2.14 7.82799 1.864 7.82399 1.56 7.82399C1.272 7.82399 0.996002 7.82799 0.732001 7.83599C0.468001 7.84399 0.232001 7.84799 0.0240015 7.84799C0.00800148 7.84799 1.47521e-06 7.82399 1.47521e-06 7.77599C1.47521e-06 7.72799 0.00800148 7.70399 0.0240015 7.70399C0.272002 7.70399 0.456002 7.68399 0.576002 7.64399C0.704002 7.60399 0.788002 7.52399 0.828001 7.40399C0.876002 7.28399 0.900002 7.10799 0.900002 6.87599ZM4.068 6.10799L2.424 3.88799L3.384 2.96399L5.22 5.43599C5.532 5.87599 5.796 6.23999 6.012 6.52799C6.228 6.80799 6.408 7.03199 6.552 7.19999C6.704 7.35999 6.836 7.47599 6.948 7.54799C7.06 7.61999 7.168 7.66399 7.272 7.67999C7.384 7.69599 7.504 7.70399 7.632 7.70399C7.656 7.70399 7.668 7.72799 7.668 7.77599C7.668 7.82399 7.656 7.84799 7.632 7.84799C7.28 7.84799 6.996 7.84799 6.78 7.84799C6.564 7.84799 6.4 7.84799 6.288 7.84799C6.088 7.84799 5.932 7.85199 5.82 7.85999C5.708 7.87599 5.608 7.86799 5.52 7.83599C5.44 7.80399 5.344 7.73199 5.232 7.61999C5.128 7.50799 4.984 7.33199 4.8 7.09199C4.624 6.85199 4.38 6.52399 4.068 6.10799ZM1.392 4.75199L4.488 1.58399C4.784 1.28799 4.892 1.03199 4.812 0.815992C4.74 0.599992 4.504 0.491992 4.104 0.491992C4.08 0.491992 4.068 0.467992 4.068 0.419992C4.068 0.371992 4.08 0.347992 4.104 0.347992C4.32 0.347992 4.54 0.355992 4.764 0.371992C4.988 0.379992 5.284 0.383991 5.652 0.383991C6.036 0.383991 6.34 0.379992 6.564 0.371992C6.788 0.355992 7.004 0.347992 7.212 0.347992C7.236 0.347992 7.248 0.371992 7.248 0.419992C7.248 0.467992 7.236 0.491992 7.212 0.491992C6.844 0.491992 6.44 0.599992 6 0.815992C5.56 1.02399 5.16 1.30399 4.8 1.65599L1.716 4.78799L1.392 4.75199ZM10.9974 7.99199C10.4214 7.99199 9.89741 7.89199 9.42541 7.69199C8.96141 7.48399 8.56141 7.19999 8.22541 6.83999C7.89741 6.47999 7.64141 6.06799 7.45741 5.60399C7.28141 5.13199 7.19341 4.63199 7.19341 4.10399C7.19341 3.45599 7.31741 2.88799 7.56541 2.39999C7.82141 1.91199 8.15741 1.50799 8.57341 1.18799C8.98941 0.859992 9.44541 0.615992 9.94141 0.455991C10.4374 0.295991 10.9294 0.215991 11.4174 0.215991C12.0094 0.215991 12.5374 0.323992 13.0014 0.539992C13.4734 0.747992 13.8734 1.03199 14.2014 1.39199C14.5294 1.75199 14.7774 2.15999 14.9454 2.61599C15.1214 3.07199 15.2094 3.53999 15.2094 4.01999C15.2094 4.57999 15.0974 5.09999 14.8734 5.57999C14.6494 6.05999 14.3414 6.47999 13.9494 6.83999C13.5654 7.19999 13.1174 7.48399 12.6054 7.69199C12.1014 7.89199 11.5654 7.99199 10.9974 7.99199ZM11.3934 7.69199C11.8414 7.69199 12.2414 7.56399 12.5934 7.30799C12.9454 7.05199 13.2214 6.67599 13.4214 6.17999C13.6294 5.68399 13.7334 5.07999 13.7334 4.36799C13.7334 3.63199 13.6214 2.97599 13.3974 2.39999C13.1734 1.82399 12.8534 1.37199 12.4374 1.04399C12.0214 0.707992 11.5214 0.539992 10.9374 0.539992C10.2094 0.539992 9.64941 0.815992 9.25741 1.36799C8.86541 1.91999 8.66941 2.68399 8.66941 3.65999C8.66941 4.24399 8.73741 4.78399 8.87341 5.27999C9.00941 5.76799 9.19741 6.19599 9.43741 6.56399C9.68541 6.92399 9.97341 7.20399 10.3014 7.40399C10.6374 7.59599 11.0014 7.69199 11.3934 7.69199ZM17.3809 1.55999C17.3809 1.86399 17.4569 2.13199 17.6089 2.36399C17.7689 2.58799 17.9729 2.79199 18.2209 2.97599C18.4769 3.15999 18.7449 3.34399 19.0249 3.52799C19.3289 3.71999 19.6169 3.92399 19.8889 4.13999C20.1689 4.34799 20.3969 4.59199 20.5729 4.87199C20.7569 5.14399 20.8489 5.47199 20.8489 5.85599C20.8489 6.27999 20.7329 6.65199 20.5009 6.97199C20.2769 7.29199 19.9689 7.54399 19.5769 7.72799C19.1929 7.90399 18.7529 7.99199 18.2569 7.99199C18.0169 7.99199 17.7649 7.96799 17.5009 7.91999C17.2449 7.87199 17.0089 7.81199 16.7929 7.73999C16.5849 7.66799 16.4329 7.59199 16.3369 7.51199C16.3049 7.48799 16.2769 7.46399 16.2529 7.43999C16.2289 7.40799 16.2169 7.35599 16.2169 7.28399L16.1809 5.37599C16.1729 5.33599 16.1889 5.31599 16.2289 5.31599C16.2769 5.30799 16.3049 5.31999 16.3129 5.35199C16.4329 5.59999 16.5649 5.86399 16.7089 6.14399C16.8529 6.41599 17.0129 6.66799 17.1889 6.89999C17.3729 7.13199 17.5769 7.32399 17.8009 7.47599C18.0249 7.61999 18.2809 7.69199 18.5689 7.69199C18.7529 7.69199 18.9289 7.65999 19.0969 7.59599C19.2649 7.53199 19.4009 7.41599 19.5049 7.24799C19.6169 7.07999 19.6729 6.84799 19.6729 6.55199C19.6729 6.17599 19.5889 5.85599 19.4209 5.59199C19.2529 5.31999 19.0369 5.08399 18.7729 4.88399C18.5089 4.67599 18.2329 4.47999 17.9449 4.29599C17.6649 4.11199 17.3969 3.92399 17.1409 3.73199C16.8849 3.53199 16.6769 3.30799 16.5169 3.05999C16.3569 2.80399 16.2769 2.49999 16.2769 2.14799C16.2769 1.69999 16.4009 1.33599 16.6489 1.05599C16.9049 0.767991 17.2249 0.555991 17.6089 0.419992C18.0009 0.283992 18.3969 0.215991 18.7969 0.215991C19.0849 0.215991 19.3729 0.243992 19.6609 0.299992C19.9489 0.347992 20.1769 0.407992 20.3449 0.479992C20.4249 0.511992 20.4729 0.547992 20.4889 0.587992C20.5129 0.627992 20.5249 0.671992 20.5249 0.719991V2.48399C20.5249 2.50799 20.5049 2.52799 20.4649 2.54399C20.4329 2.55199 20.4089 2.54399 20.3929 2.51999C20.3449 2.42399 20.2769 2.26799 20.1889 2.05199C20.1009 1.82799 19.9849 1.59599 19.8409 1.35599C19.6969 1.11599 19.5129 0.911992 19.2889 0.743992C19.0649 0.567992 18.7929 0.479992 18.4729 0.479992C18.2729 0.479992 18.0889 0.519992 17.9209 0.599992C17.7609 0.679991 17.6289 0.799992 17.5249 0.959992C17.4289 1.11199 17.3809 1.31199 17.3809 1.55999ZM23.6327 0.623991C23.1447 0.623991 22.7287 0.787991 22.3847 1.11599C22.0487 1.43599 21.7807 1.89199 21.5807 2.48399C21.5727 2.50799 21.5487 2.51999 21.5087 2.51999C21.4687 2.51199 21.4487 2.49599 21.4487 2.47199C21.4647 2.35999 21.4807 2.20399 21.4967 2.00399C21.5127 1.79599 21.5287 1.57199 21.5447 1.33199C21.5687 1.09199 21.5847 0.859992 21.5927 0.635992C21.6087 0.411992 21.6167 0.227992 21.6167 0.0839918C21.6167 0.0439918 21.6367 0.0239918 21.6767 0.0239918C21.7247 0.0239918 21.7487 0.0439918 21.7487 0.0839918C21.7487 0.163992 21.7887 0.223992 21.8687 0.263992C21.9567 0.295992 22.0527 0.319992 22.1567 0.335991C22.2687 0.343992 22.3607 0.347992 22.4327 0.347992C23.1207 0.371992 23.9247 0.383991 24.8447 0.383991C25.4047 0.383991 25.8527 0.379992 26.1887 0.371992C26.5247 0.355992 26.8487 0.347992 27.1607 0.347992C27.4487 0.347992 27.6647 0.331992 27.8087 0.299992C27.9607 0.259992 28.0567 0.175992 28.0967 0.0479915C28.1047 0.0159914 28.1287 -8.58307e-06 28.1687 -8.58307e-06C28.2167 -8.58307e-06 28.2407 0.0159914 28.2407 0.0479915C28.2247 0.175992 28.2087 0.355992 28.1927 0.587992C28.1847 0.811992 28.1727 1.05199 28.1567 1.30799C28.1487 1.55599 28.1407 1.78799 28.1327 2.00399C28.1247 2.21199 28.1207 2.36799 28.1207 2.47199C28.1207 2.49599 28.1007 2.50799 28.0607 2.50799C28.0207 2.50799 27.9967 2.49599 27.9887 2.47199C27.8687 1.83999 27.6407 1.37599 27.3047 1.07999C26.9767 0.775991 26.5767 0.623991 26.1047 0.623991C25.9447 0.623991 25.8207 0.647991 25.7327 0.695992C25.6527 0.735992 25.5967 0.807992 25.5647 0.911992C25.5407 1.01599 25.5287 1.15999 25.5287 1.34399V6.87599C25.5287 7.10799 25.5527 7.28399 25.6007 7.40399C25.6487 7.52399 25.7407 7.60399 25.8767 7.64399C26.0207 7.68399 26.2367 7.70399 26.5247 7.70399C26.5487 7.70399 26.5607 7.72799 26.5607 7.77599C26.5607 7.82399 26.5487 7.84799 26.5247 7.84799C26.3007 7.84799 26.0487 7.84399 25.7687 7.83599C25.4887 7.82799 25.1807 7.82399 24.8447 7.82399C24.5247 7.82399 24.2247 7.82799 23.9447 7.83599C23.6647 7.84399 23.4087 7.84799 23.1767 7.84799C23.1527 7.84799 23.1407 7.82399 23.1407 7.77599C23.1407 7.72799 23.1527 7.70399 23.1767 7.70399C23.4567 7.70399 23.6687 7.68399 23.8127 7.64399C23.9567 7.60399 24.0527 7.52399 24.1007 7.40399C24.1567 7.28399 24.1847 7.10799 24.1847 6.87599V1.31999C24.1847 1.14399 24.1687 1.00799 24.1367 0.911992C24.1127 0.807992 24.0607 0.735992 23.9807 0.695992C23.9007 0.647991 23.7847 0.623991 23.6327 0.623991ZM30.9036 6.87599C30.9036 7.10799 30.9236 7.28399 30.9636 7.40399C31.0036 7.52399 31.0836 7.60399 31.2036 7.64399C31.3236 7.68399 31.5076 7.70399 31.7556 7.70399C31.7796 7.70399 31.7916 7.72799 31.7916 7.77599C31.7916 7.82399 31.7796 7.84799 31.7556 7.84799C31.5476 7.84799 31.3156 7.84399 31.0596 7.83599C30.8036 7.82799 30.5236 7.82399 30.2196 7.82399C29.9316 7.82399 29.6556 7.82799 29.3916 7.83599C29.1276 7.84399 28.8916 7.84799 28.6836 7.84799C28.6676 7.84799 28.6596 7.82399 28.6596 7.77599C28.6596 7.72799 28.6676 7.70399 28.6836 7.70399C28.9316 7.70399 29.1156 7.68399 29.2356 7.64399C29.3636 7.60399 29.4476 7.52399 29.4876 7.40399C29.5356 7.28399 29.5596 7.10799 29.5596 6.87599V1.31999C29.5596 1.08799 29.5356 0.915992 29.4876 0.803992C29.4476 0.683991 29.3636 0.603991 29.2356 0.563991C29.1156 0.515991 28.9316 0.491992 28.6836 0.491992C28.6676 0.491992 28.6596 0.467992 28.6596 0.419992C28.6596 0.371992 28.6676 0.347992 28.6836 0.347992C28.8916 0.347992 29.1276 0.355992 29.3916 0.371992C29.6556 0.379992 29.9316 0.383991 30.2196 0.383991C30.5236 0.383991 30.8036 0.379992 31.0596 0.371992C31.3236 0.355992 31.5556 0.347992 31.7556 0.347992C31.7796 0.347992 31.7916 0.371992 31.7916 0.419992C31.7916 0.467992 31.7796 0.491992 31.7556 0.491992C31.5156 0.491992 31.3316 0.515991 31.2036 0.563991C31.0836 0.611992 31.0036 0.695992 30.9636 0.815992C30.9236 0.935992 30.9036 1.11199 30.9036 1.34399V6.87599ZM34.3972 4.25999L34.5772 3.92399H37.0492L37.1332 4.25999H34.3972ZM40.3852 7.70399C40.4252 7.70399 40.4452 7.72799 40.4452 7.77599C40.4452 7.82399 40.4252 7.84799 40.3852 7.84799C40.1452 7.84799 39.8932 7.83999 39.6292 7.82399C39.3732 7.80799 39.1252 7.79999 38.8852 7.79999C38.6132 7.79999 38.3772 7.80799 38.1772 7.82399C37.9772 7.83999 37.7532 7.84799 37.5052 7.84799C37.4732 7.84799 37.4572 7.82399 37.4572 7.77599C37.4572 7.72799 37.4732 7.70399 37.5052 7.70399C37.8332 7.70399 38.0212 7.63999 38.0692 7.51199C38.1252 7.37599 38.0532 7.11199 37.8532 6.71999L35.4172 1.90799L36.0052 0.875992L33.6172 6.14399C33.4012 6.62399 33.3972 7.00399 33.6052 7.28399C33.8132 7.56399 34.1412 7.70399 34.5892 7.70399C34.6292 7.70399 34.6492 7.72799 34.6492 7.77599C34.6492 7.82399 34.6292 7.84799 34.5892 7.84799C34.3492 7.84799 34.1292 7.83999 33.9292 7.82399C33.7292 7.80799 33.4772 7.79999 33.1732 7.79999C32.8612 7.79999 32.6092 7.80799 32.4172 7.82399C32.2332 7.83999 32.0052 7.84799 31.7332 7.84799C31.7012 7.84799 31.6852 7.82399 31.6852 7.77599C31.6852 7.72799 31.7012 7.70399 31.7332 7.70399C31.9492 7.70399 32.1332 7.65999 32.2852 7.57199C32.4452 7.47599 32.6012 7.30799 32.7532 7.06799C32.9132 6.81999 33.0932 6.47199 33.2932 6.02399L35.8972 0.299992C35.9052 0.275992 35.9412 0.263992 36.0052 0.263992C36.0692 0.255992 36.1052 0.267992 36.1132 0.299992L39.1132 6.20399C39.3052 6.57999 39.4692 6.87999 39.6052 7.10399C39.7492 7.31999 39.8812 7.47599 40.0012 7.57199C40.1292 7.65999 40.2572 7.70399 40.3852 7.70399ZM41.395 6.32399V0.623991L41.755 0.647992V6.32399C41.755 6.74799 41.843 7.08399 42.019 7.33199C42.195 7.57999 42.439 7.70399 42.751 7.70399C42.767 7.70399 42.775 7.72799 42.775 7.77599C42.775 7.82399 42.767 7.84799 42.751 7.84799C42.575 7.84799 42.391 7.84399 42.199 7.83599C42.015 7.82799 41.811 7.82399 41.587 7.82399C41.347 7.82399 41.111 7.82799 40.879 7.83599C40.655 7.84399 40.447 7.84799 40.255 7.84799C40.231 7.84799 40.219 7.82399 40.219 7.77599C40.219 7.72799 40.231 7.70399 40.255 7.70399C40.607 7.70399 40.883 7.57999 41.083 7.33199C41.291 7.08399 41.395 6.74799 41.395 6.32399ZM47.515 8.02799C47.515 8.05199 47.495 8.06399 47.455 8.06399C47.423 8.07199 47.399 8.07199 47.383 8.06399L41.467 1.33199C41.179 1.00399 40.935 0.783991 40.735 0.671991C40.535 0.551991 40.335 0.491992 40.135 0.491992C40.119 0.491992 40.111 0.467992 40.111 0.419992C40.111 0.371992 40.119 0.347992 40.135 0.347992C40.295 0.347992 40.459 0.351992 40.627 0.359992C40.795 0.367992 40.951 0.371992 41.095 0.371992C41.383 0.371992 41.643 0.367992 41.875 0.359992C42.107 0.351992 42.287 0.347992 42.415 0.347992C42.519 0.347992 42.595 0.395992 42.643 0.491992C42.699 0.579991 42.823 0.739991 43.015 0.971992L47.419 6.04799L47.515 8.02799ZM47.515 1.88399V8.02799L47.167 7.66799V1.88399C47.167 1.45999 47.079 1.12399 46.903 0.875992C46.727 0.619992 46.483 0.491992 46.171 0.491992C46.155 0.491992 46.147 0.467992 46.147 0.419992C46.147 0.371992 46.155 0.347992 46.171 0.347992C46.347 0.347992 46.527 0.355992 46.711 0.371992C46.903 0.379992 47.111 0.383991 47.335 0.383991C47.551 0.383991 47.763 0.379992 47.971 0.371992C48.179 0.355992 48.371 0.347992 48.547 0.347992C48.563 0.347992 48.571 0.371992 48.571 0.419992C48.571 0.467992 48.563 0.491992 48.547 0.491992C48.227 0.491992 47.975 0.619992 47.791 0.875992C47.607 1.12399 47.515 1.45999 47.515 1.88399ZM50.8593 0.623991C50.3713 0.623991 49.9553 0.787991 49.6113 1.11599C49.2753 1.43599 49.0073 1.89199 48.8073 2.48399C48.7993 2.50799 48.7753 2.51999 48.7353 2.51999C48.6953 2.51199 48.6753 2.49599 48.6753 2.47199C48.6913 2.35999 48.7073 2.20399 48.7233 2.00399C48.7393 1.79599 48.7553 1.57199 48.7713 1.33199C48.7953 1.09199 48.8113 0.859992 48.8193 0.635992C48.8353 0.411992 48.8433 0.227992 48.8433 0.0839918C48.8433 0.0439918 48.8633 0.0239918 48.9033 0.0239918C48.9513 0.0239918 48.9753 0.0439918 48.9753 0.0839918C48.9753 0.163992 49.0153 0.223992 49.0953 0.263992C49.1833 0.295992 49.2793 0.319992 49.3833 0.335991C49.4953 0.343992 49.5873 0.347992 49.6593 0.347992C50.3473 0.371992 51.1513 0.383991 52.0713 0.383991C52.6313 0.383991 53.0793 0.379992 53.4153 0.371992C53.7513 0.355992 54.0753 0.347992 54.3873 0.347992C54.6753 0.347992 54.8913 0.331992 55.0353 0.299992C55.1873 0.259992 55.2833 0.175992 55.3233 0.0479915C55.3313 0.0159914 55.3553 -8.58307e-06 55.3953 -8.58307e-06C55.4433 -8.58307e-06 55.4673 0.0159914 55.4673 0.0479915C55.4513 0.175992 55.4353 0.355992 55.4193 0.587992C55.4113 0.811992 55.3993 1.05199 55.3833 1.30799C55.3753 1.55599 55.3673 1.78799 55.3593 2.00399C55.3513 2.21199 55.3473 2.36799 55.3473 2.47199C55.3473 2.49599 55.3273 2.50799 55.2873 2.50799C55.2473 2.50799 55.2233 2.49599 55.2153 2.47199C55.0953 1.83999 54.8673 1.37599 54.5313 1.07999C54.2033 0.775991 53.8033 0.623991 53.3313 0.623991C53.1713 0.623991 53.0473 0.647991 52.9593 0.695992C52.8793 0.735992 52.8233 0.807992 52.7913 0.911992C52.7673 1.01599 52.7553 1.15999 52.7553 1.34399V6.87599C52.7553 7.10799 52.7793 7.28399 52.8273 7.40399C52.8753 7.52399 52.9673 7.60399 53.1033 7.64399C53.2473 7.68399 53.4633 7.70399 53.7513 7.70399C53.7753 7.70399 53.7873 7.72799 53.7873 7.77599C53.7873 7.82399 53.7753 7.84799 53.7513 7.84799C53.5273 7.84799 53.2753 7.84399 52.9953 7.83599C52.7153 7.82799 52.4073 7.82399 52.0713 7.82399C51.7513 7.82399 51.4513 7.82799 51.1713 7.83599C50.8913 7.84399 50.6353 7.84799 50.4033 7.84799C50.3793 7.84799 50.3673 7.82399 50.3673 7.77599C50.3673 7.72799 50.3793 7.70399 50.4033 7.70399C50.6833 7.70399 50.8953 7.68399 51.0393 7.64399C51.1833 7.60399 51.2793 7.52399 51.3273 7.40399C51.3833 7.28399 51.4113 7.10799 51.4113 6.87599V1.31999C51.4113 1.14399 51.3953 1.00799 51.3633 0.911992C51.3393 0.807992 51.2873 0.735992 51.2073 0.695992C51.1273 0.647991 51.0113 0.623991 50.8593 0.623991ZM59.2222 4.51199L60.6982 2.00399C60.9622 1.55599 61.0622 1.19199 60.9982 0.911992C60.9422 0.631992 60.7262 0.491992 60.3502 0.491992C60.3262 0.491992 60.3142 0.467992 60.3142 0.419992C60.3142 0.371992 60.3262 0.347992 60.3502 0.347992C60.6062 0.347992 60.8462 0.355992 61.0702 0.371992C61.2942 0.379992 61.5942 0.383991 61.9702 0.383991C62.1702 0.383991 62.3302 0.379992 62.4502 0.371992C62.5782 0.355992 62.7302 0.347992 62.9062 0.347992C62.9222 0.347992 62.9302 0.371992 62.9302 0.419992C62.9302 0.467992 62.9222 0.491992 62.9062 0.491992C62.7462 0.491992 62.5542 0.563992 62.3302 0.707992C62.1062 0.843992 61.8822 1.03199 61.6582 1.27199C61.4342 1.51199 61.2262 1.79199 61.0342 2.11199L59.4742 4.71599L59.2222 4.51199ZM58.5262 4.55999L56.7022 1.72799C56.3822 1.23199 56.1262 0.903992 55.9342 0.743992C55.7502 0.575992 55.5942 0.491992 55.4662 0.491992C55.4422 0.491992 55.4302 0.467992 55.4302 0.419992C55.4302 0.371992 55.4422 0.347992 55.4662 0.347992C55.5862 0.347992 55.7102 0.355992 55.8382 0.371992C55.9662 0.379992 56.0902 0.383991 56.2102 0.383991C56.4342 0.383991 56.6742 0.383991 56.9302 0.383991C57.1862 0.375992 57.4262 0.367992 57.6502 0.359992C57.8822 0.351992 58.0702 0.347992 58.2142 0.347992C58.2302 0.347992 58.2382 0.371992 58.2382 0.419992C58.2382 0.467992 58.2302 0.491992 58.2142 0.491992C57.9822 0.491992 57.8422 0.571991 57.7942 0.731991C57.7542 0.891992 57.8062 1.07999 57.9502 1.29599L59.6782 4.01999L58.5262 4.55999ZM58.4542 4.12799L59.7862 4.01999V6.87599C59.7862 7.10799 59.8062 7.28399 59.8462 7.40399C59.8862 7.52399 59.9662 7.60399 60.0862 7.64399C60.2062 7.68399 60.3902 7.70399 60.6382 7.70399C60.6622 7.70399 60.6742 7.72799 60.6742 7.77599C60.6742 7.82399 60.6622 7.84799 60.6382 7.84799C60.4302 7.84799 60.1982 7.84399 59.9422 7.83599C59.6942 7.82799 59.4182 7.82399 59.1142 7.82399C58.8262 7.82399 58.5502 7.82799 58.2862 7.83599C58.0222 7.84399 57.7862 7.84799 57.5782 7.84799C57.5622 7.84799 57.5542 7.82399 57.5542 7.77599C57.5542 7.72799 57.5622 7.70399 57.5782 7.70399C57.8262 7.70399 58.0102 7.68399 58.1302 7.64399C58.2582 7.60399 58.3422 7.52399 58.3822 7.40399C58.4302 7.28399 58.4542 7.10799 58.4542 6.87599V4.12799ZM63.8599 6.32399V0.623991L64.2199 0.647992V6.32399C64.2199 6.74799 64.3079 7.08399 64.4839 7.33199C64.6599 7.57999 64.9039 7.70399 65.2159 7.70399C65.2319 7.70399 65.2399 7.72799 65.2399 7.77599C65.2399 7.82399 65.2319 7.84799 65.2159 7.84799C65.0399 7.84799 64.8559 7.84399 64.6639 7.83599C64.4799 7.82799 64.2759 7.82399 64.0519 7.82399C63.8119 7.82399 63.5759 7.82799 63.3439 7.83599C63.1199 7.84399 62.9119 7.84799 62.7199 7.84799C62.6959 7.84799 62.6839 7.82399 62.6839 7.77599C62.6839 7.72799 62.6959 7.70399 62.7199 7.70399C63.0719 7.70399 63.3479 7.57999 63.5479 7.33199C63.7559 7.08399 63.8599 6.74799 63.8599 6.32399ZM69.9799 8.02799C69.9799 8.05199 69.9599 8.06399 69.9199 8.06399C69.8879 8.07199 69.8639 8.07199 69.8479 8.06399L63.9319 1.33199C63.6439 1.00399 63.3999 0.783991 63.1999 0.671991C62.9999 0.551991 62.7999 0.491992 62.5999 0.491992C62.5839 0.491992 62.5759 0.467992 62.5759 0.419992C62.5759 0.371992 62.5839 0.347992 62.5999 0.347992C62.7599 0.347992 62.9239 0.351992 63.0919 0.359992C63.2599 0.367992 63.4159 0.371992 63.5599 0.371992C63.8479 0.371992 64.1079 0.367992 64.3399 0.359992C64.5719 0.351992 64.7519 0.347992 64.8799 0.347992C64.9839 0.347992 65.0599 0.395992 65.1079 0.491992C65.1639 0.579991 65.2879 0.739991 65.4799 0.971992L69.8839 6.04799L69.9799 8.02799ZM69.9799 1.88399V8.02799L69.6319 7.66799V1.88399C69.6319 1.45999 69.5439 1.12399 69.3679 0.875992C69.1919 0.619992 68.9479 0.491992 68.6359 0.491992C68.6199 0.491992 68.6119 0.467992 68.6119 0.419992C68.6119 0.371992 68.6199 0.347992 68.6359 0.347992C68.8119 0.347992 68.9919 0.355992 69.1759 0.371992C69.3679 0.379992 69.5759 0.383991 69.7999 0.383991C70.0159 0.383991 70.2279 0.379992 70.4359 0.371992C70.6439 0.355992 70.8359 0.347992 71.0119 0.347992C71.0279 0.347992 71.0359 0.371992 71.0359 0.419992C71.0359 0.467992 71.0279 0.491992 71.0119 0.491992C70.6919 0.491992 70.4399 0.619992 70.2559 0.875992C70.0719 1.12399 69.9799 1.45999 69.9799 1.88399ZM79.6771 7.99199C79.1011 7.99199 78.5771 7.89199 78.1051 7.69199C77.6411 7.48399 77.2411 7.19999 76.9051 6.83999C76.5771 6.47999 76.3211 6.06799 76.1371 5.60399C75.9611 5.13199 75.8731 4.63199 75.8731 4.10399C75.8731 3.45599 75.9971 2.88799 76.2451 2.39999C76.5011 1.91199 76.8371 1.50799 77.2531 1.18799C77.6691 0.859992 78.1251 0.615992 78.6211 0.455991C79.1171 0.295991 79.6091 0.215991 80.0971 0.215991C80.6891 0.215991 81.2171 0.323992 81.6811 0.539992C82.1531 0.747992 82.5531 1.03199 82.8811 1.39199C83.2091 1.75199 83.4571 2.15999 83.6251 2.61599C83.8011 3.07199 83.8891 3.53999 83.8891 4.01999C83.8891 4.57999 83.7771 5.09999 83.5531 5.57999C83.3291 6.05999 83.0211 6.47999 82.6291 6.83999C82.2451 7.19999 81.7971 7.48399 81.2851 7.69199C80.7811 7.89199 80.2451 7.99199 79.6771 7.99199ZM80.0731 7.69199C80.5211 7.69199 80.9211 7.56399 81.2731 7.30799C81.6251 7.05199 81.9011 6.67599 82.1011 6.17999C82.3091 5.68399 82.4131 5.07999 82.4131 4.36799C82.4131 3.63199 82.3011 2.97599 82.0771 2.39999C81.8531 1.82399 81.5331 1.37199 81.1171 1.04399C80.7011 0.707992 80.2011 0.539992 79.6171 0.539992C78.8891 0.539992 78.3291 0.815992 77.9371 1.36799C77.5451 1.91999 77.3491 2.68399 77.3491 3.65999C77.3491 4.24399 77.4171 4.78399 77.5531 5.27999C77.6891 5.76799 77.8771 6.19599 78.1171 6.56399C78.3651 6.92399 78.6531 7.20399 78.9811 7.40399C79.3171 7.59599 79.6811 7.69199 80.0731 7.69199ZM86.0606 1.55999C86.0606 1.86399 86.1366 2.13199 86.2886 2.36399C86.4486 2.58799 86.6526 2.79199 86.9006 2.97599C87.1566 3.15999 87.4246 3.34399 87.7046 3.52799C88.0086 3.71999 88.2966 3.92399 88.5686 4.13999C88.8486 4.34799 89.0766 4.59199 89.2526 4.87199C89.4366 5.14399 89.5286 5.47199 89.5286 5.85599C89.5286 6.27999 89.4126 6.65199 89.1806 6.97199C88.9566 7.29199 88.6486 7.54399 88.2566 7.72799C87.8726 7.90399 87.4326 7.99199 86.9366 7.99199C86.6966 7.99199 86.4446 7.96799 86.1806 7.91999C85.9246 7.87199 85.6886 7.81199 85.4726 7.73999C85.2646 7.66799 85.1126 7.59199 85.0166 7.51199C84.9846 7.48799 84.9566 7.46399 84.9326 7.43999C84.9086 7.40799 84.8966 7.35599 84.8966 7.28399L84.8606 5.37599C84.8526 5.33599 84.8686 5.31599 84.9086 5.31599C84.9566 5.30799 84.9846 5.31999 84.9926 5.35199C85.1126 5.59999 85.2446 5.86399 85.3886 6.14399C85.5326 6.41599 85.6926 6.66799 85.8686 6.89999C86.0526 7.13199 86.2566 7.32399 86.4806 7.47599C86.7046 7.61999 86.9606 7.69199 87.2486 7.69199C87.4326 7.69199 87.6086 7.65999 87.7766 7.59599C87.9446 7.53199 88.0806 7.41599 88.1846 7.24799C88.2966 7.07999 88.3526 6.84799 88.3526 6.55199C88.3526 6.17599 88.2686 5.85599 88.1006 5.59199C87.9326 5.31999 87.7166 5.08399 87.4526 4.88399C87.1886 4.67599 86.9126 4.47999 86.6246 4.29599C86.3446 4.11199 86.0766 3.92399 85.8206 3.73199C85.5646 3.53199 85.3566 3.30799 85.1966 3.05999C85.0366 2.80399 84.9566 2.49999 84.9566 2.14799C84.9566 1.69999 85.0806 1.33599 85.3286 1.05599C85.5846 0.767991 85.9046 0.555991 86.2886 0.419992C86.6806 0.283992 87.0766 0.215991 87.4766 0.215991C87.7646 0.215991 88.0526 0.243992 88.3406 0.299992C88.6286 0.347992 88.8566 0.407992 89.0246 0.479992C89.1046 0.511992 89.1526 0.547992 89.1686 0.587992C89.1926 0.627992 89.2046 0.671992 89.2046 0.719991V2.48399C89.2046 2.50799 89.1846 2.52799 89.1446 2.54399C89.1126 2.55199 89.0886 2.54399 89.0726 2.51999C89.0246 2.42399 88.9566 2.26799 88.8686 2.05199C88.7806 1.82799 88.6646 1.59599 88.5206 1.35599C88.3766 1.11599 88.1926 0.911992 87.9686 0.743992C87.7446 0.567992 87.4726 0.479992 87.1526 0.479992C86.9526 0.479992 86.7686 0.519992 86.6006 0.599992C86.4406 0.679991 86.3086 0.799992 86.2046 0.959992C86.1086 1.11199 86.0606 1.31199 86.0606 1.55999ZM92.3124 0.623991C91.8244 0.623991 91.4084 0.787991 91.0644 1.11599C90.7284 1.43599 90.4604 1.89199 90.2604 2.48399C90.2524 2.50799 90.2284 2.51999 90.1884 2.51999C90.1484 2.51199 90.1284 2.49599 90.1284 2.47199C90.1444 2.35999 90.1604 2.20399 90.1764 2.00399C90.1924 1.79599 90.2084 1.57199 90.2244 1.33199C90.2484 1.09199 90.2644 0.859992 90.2724 0.635992C90.2884 0.411992 90.2964 0.227992 90.2964 0.0839918C90.2964 0.0439918 90.3164 0.0239918 90.3564 0.0239918C90.4044 0.0239918 90.4284 0.0439918 90.4284 0.0839918C90.4284 0.163992 90.4684 0.223992 90.5484 0.263992C90.6364 0.295992 90.7324 0.319992 90.8364 0.335991C90.9484 0.343992 91.0404 0.347992 91.1124 0.347992C91.8004 0.371992 92.6044 0.383991 93.5244 0.383991C94.0844 0.383991 94.5324 0.379992 94.8684 0.371992C95.2044 0.355992 95.5284 0.347992 95.8404 0.347992C96.1284 0.347992 96.3444 0.331992 96.4884 0.299992C96.6404 0.259992 96.7364 0.175992 96.7764 0.0479915C96.7844 0.0159914 96.8084 -8.58307e-06 96.8484 -8.58307e-06C96.8964 -8.58307e-06 96.9204 0.0159914 96.9204 0.0479915C96.9044 0.175992 96.8884 0.355992 96.8724 0.587992C96.8644 0.811992 96.8524 1.05199 96.8364 1.30799C96.8284 1.55599 96.8204 1.78799 96.8124 2.00399C96.8044 2.21199 96.8004 2.36799 96.8004 2.47199C96.8004 2.49599 96.7804 2.50799 96.7404 2.50799C96.7004 2.50799 96.6764 2.49599 96.6684 2.47199C96.5484 1.83999 96.3204 1.37599 95.9844 1.07999C95.6564 0.775991 95.2564 0.623991 94.7844 0.623991C94.6244 0.623991 94.5004 0.647991 94.4124 0.695992C94.3324 0.735992 94.2764 0.807992 94.2444 0.911992C94.2204 1.01599 94.2084 1.15999 94.2084 1.34399V6.87599C94.2084 7.10799 94.2324 7.28399 94.2804 7.40399C94.3284 7.52399 94.4204 7.60399 94.5564 7.64399C94.7004 7.68399 94.9164 7.70399 95.2044 7.70399C95.2284 7.70399 95.2404 7.72799 95.2404 7.77599C95.2404 7.82399 95.2284 7.84799 95.2044 7.84799C94.9804 7.84799 94.7284 7.84399 94.4484 7.83599C94.1684 7.82799 93.8604 7.82399 93.5244 7.82399C93.2044 7.82399 92.9044 7.82799 92.6244 7.83599C92.3444 7.84399 92.0884 7.84799 91.8564 7.84799C91.8324 7.84799 91.8204 7.82399 91.8204 7.77599C91.8204 7.72799 91.8324 7.70399 91.8564 7.70399C92.1364 7.70399 92.3484 7.68399 92.4924 7.64399C92.6364 7.60399 92.7324 7.52399 92.7804 7.40399C92.8364 7.28399 92.8644 7.10799 92.8644 6.87599V1.31999C92.8644 1.14399 92.8484 1.00799 92.8164 0.911992C92.7924 0.807992 92.7404 0.735992 92.6604 0.695992C92.5804 0.647991 92.4644 0.623991 92.3124 0.623991ZM98.6316 4.25999L98.8116 3.92399H101.284L101.368 4.25999H98.6316ZM104.62 7.70399C104.66 7.70399 104.68 7.72799 104.68 7.77599C104.68 7.82399 104.66 7.84799 104.62 7.84799C104.38 7.84799 104.128 7.83999 103.864 7.82399C103.608 7.80799 103.36 7.79999 103.12 7.79999C102.848 7.79999 102.612 7.80799 102.412 7.82399C102.212 7.83999 101.988 7.84799 101.74 7.84799C101.708 7.84799 101.692 7.82399 101.692 7.77599C101.692 7.72799 101.708 7.70399 101.74 7.70399C102.068 7.70399 102.256 7.63999 102.304 7.51199C102.36 7.37599 102.288 7.11199 102.088 6.71999L99.6516 1.90799L100.24 0.875992L97.8516 6.14399C97.6356 6.62399 97.6316 7.00399 97.8396 7.28399C98.0476 7.56399 98.3756 7.70399 98.8236 7.70399C98.8636 7.70399 98.8836 7.72799 98.8836 7.77599C98.8836 7.82399 98.8636 7.84799 98.8236 7.84799C98.5836 7.84799 98.3636 7.83999 98.1636 7.82399C97.9636 7.80799 97.7116 7.79999 97.4076 7.79999C97.0956 7.79999 96.8436 7.80799 96.6516 7.82399C96.4676 7.83999 96.2396 7.84799 95.9676 7.84799C95.9356 7.84799 95.9196 7.82399 95.9196 7.77599C95.9196 7.72799 95.9356 7.70399 95.9676 7.70399C96.1836 7.70399 96.3676 7.65999 96.5196 7.57199C96.6796 7.47599 96.8356 7.30799 96.9876 7.06799C97.1476 6.81999 97.3276 6.47199 97.5276 6.02399L100.132 0.299992C100.14 0.275992 100.176 0.263992 100.24 0.263992C100.304 0.255992 100.34 0.267992 100.348 0.299992L103.348 6.20399C103.54 6.57999 103.704 6.87999 103.84 7.10399C103.984 7.31999 104.116 7.47599 104.236 7.57199C104.364 7.65999 104.492 7.70399 104.62 7.70399ZM106.697 6.82799C106.697 7.06799 106.721 7.25199 106.769 7.37999C106.825 7.49999 106.937 7.58399 107.105 7.63199C107.273 7.67999 107.521 7.70399 107.849 7.70399C107.873 7.70399 107.885 7.72799 107.885 7.77599C107.885 7.82399 107.873 7.84799 107.849 7.84799C107.593 7.84799 107.313 7.84399 107.009 7.83599C106.713 7.82799 106.389 7.82399 106.037 7.82399C105.749 7.82399 105.473 7.82799 105.209 7.83599C104.953 7.84399 104.721 7.84799 104.513 7.84799C104.489 7.84799 104.477 7.82399 104.477 7.77599C104.477 7.72799 104.489 7.70399 104.513 7.70399C104.761 7.70399 104.945 7.68399 105.065 7.64399C105.185 7.60399 105.265 7.52399 105.305 7.40399C105.345 7.28399 105.365 7.10799 105.365 6.87599V1.31999C105.365 1.08799 105.345 0.915992 105.305 0.803992C105.265 0.683991 105.185 0.603991 105.065 0.563991C104.945 0.515991 104.761 0.491992 104.513 0.491992C104.489 0.491992 104.477 0.467992 104.477 0.419992C104.477 0.371992 104.489 0.347992 104.513 0.347992C104.721 0.347992 104.953 0.355992 105.209 0.371992C105.465 0.379992 105.737 0.383991 106.025 0.383991C106.217 0.383991 106.469 0.371992 106.781 0.347992C107.093 0.323992 107.385 0.311992 107.657 0.311992C108.161 0.311992 108.605 0.379992 108.989 0.515992C109.381 0.643992 109.693 0.851992 109.925 1.13999C110.157 1.42799 110.281 1.80799 110.297 2.27999C110.313 2.68799 110.245 3.04399 110.093 3.34799C109.949 3.65199 109.745 3.90399 109.481 4.10399C109.225 4.30399 108.937 4.45599 108.617 4.55999C108.305 4.65599 107.993 4.70399 107.681 4.70399C107.601 4.70399 107.509 4.69999 107.405 4.69199C107.309 4.68399 107.213 4.66799 107.117 4.64399C107.093 4.63599 107.085 4.60799 107.093 4.55999C107.101 4.50399 107.121 4.47999 107.153 4.48799C107.217 4.50399 107.289 4.51599 107.369 4.52399C107.449 4.53199 107.513 4.53599 107.561 4.53599C107.793 4.53599 108.005 4.46399 108.197 4.31999C108.389 4.17599 108.545 3.95599 108.665 3.65999C108.785 3.36399 108.845 2.99599 108.845 2.55599C108.845 2.13199 108.785 1.77599 108.665 1.48799C108.545 1.19199 108.369 0.967992 108.137 0.815992C107.905 0.655992 107.617 0.575992 107.273 0.575992C107.129 0.575992 107.013 0.595992 106.925 0.635992C106.845 0.675992 106.785 0.751992 106.745 0.863992C106.713 0.975992 106.697 1.13599 106.697 1.34399V6.82799ZM116.034 7.84799H110.73C110.706 7.84799 110.694 7.82399 110.694 7.77599C110.694 7.72799 110.706 7.70399 110.73 7.70399C110.978 7.70399 111.162 7.68399 111.282 7.64399C111.402 7.60399 111.482 7.52399 111.522 7.40399C111.562 7.28399 111.582 7.10799 111.582 6.87599V1.31999C111.582 1.08799 111.562 0.915992 111.522 0.803992C111.482 0.683991 111.402 0.603991 111.282 0.563991C111.162 0.515991 110.978 0.491992 110.73 0.491992C110.706 0.491992 110.694 0.467992 110.694 0.419992C110.694 0.371992 110.706 0.347992 110.73 0.347992H115.818C115.898 0.347992 115.938 0.383992 115.938 0.455991L115.962 2.05199C115.962 2.06799 115.942 2.07999 115.902 2.08799C115.862 2.09599 115.834 2.08799 115.818 2.06399C115.69 1.59199 115.474 1.24799 115.17 1.03199C114.866 0.807992 114.466 0.695992 113.97 0.695992H113.61C113.45 0.695992 113.318 0.719992 113.214 0.767992C113.11 0.807992 113.034 0.875992 112.986 0.971992C112.938 1.06799 112.914 1.18799 112.914 1.33199V6.82799C112.914 6.97999 112.934 7.10799 112.974 7.21199C113.014 7.31599 113.074 7.39199 113.154 7.43999C113.234 7.48799 113.338 7.51199 113.466 7.51199H113.862C114.486 7.51199 114.986 7.38399 115.362 7.12799C115.738 6.87199 116.014 6.47599 116.19 5.93999C116.198 5.91599 116.222 5.91199 116.262 5.92799C116.31 5.93599 116.334 5.94799 116.334 5.96399C116.302 6.19599 116.274 6.47199 116.25 6.79199C116.226 7.10399 116.214 7.39599 116.214 7.66799C116.214 7.78799 116.154 7.84799 116.034 7.84799ZM115.362 5.17199C115.362 4.84399 115.238 4.58799 114.99 4.40399C114.742 4.21199 114.378 4.11599 113.898 4.11599H112.278V3.77999H113.91C114.382 3.77999 114.738 3.69999 114.978 3.53999C115.226 3.37199 115.35 3.14799 115.35 2.86799C115.35 2.84399 115.37 2.83199 115.41 2.83199C115.458 2.83199 115.482 2.84399 115.482 2.86799C115.482 3.13199 115.478 3.33999 115.47 3.49199C115.47 3.63599 115.47 3.78799 115.47 3.94799C115.47 4.14799 115.474 4.34399 115.482 4.53599C115.498 4.72799 115.506 4.93999 115.506 5.17199C115.506 5.18799 115.482 5.19599 115.434 5.19599C115.386 5.19599 115.362 5.18799 115.362 5.17199ZM117.883 6.32399V0.623991L118.243 0.647992V6.32399C118.243 6.74799 118.331 7.08399 118.507 7.33199C118.683 7.57999 118.927 7.70399 119.239 7.70399C119.255 7.70399 119.263 7.72799 119.263 7.77599C119.263 7.82399 119.255 7.84799 119.239 7.84799C119.063 7.84799 118.879 7.84399 118.687 7.83599C118.503 7.82799 118.299 7.82399 118.075 7.82399C117.835 7.82399 117.599 7.82799 117.367 7.83599C117.143 7.84399 116.935 7.84799 116.743 7.84799C116.719 7.84799 116.707 7.82399 116.707 7.77599C116.707 7.72799 116.719 7.70399 116.743 7.70399C117.095 7.70399 117.371 7.57999 117.571 7.33199C117.779 7.08399 117.883 6.74799 117.883 6.32399ZM124.003 8.02799C124.003 8.05199 123.983 8.06399 123.943 8.06399C123.911 8.07199 123.887 8.07199 123.871 8.06399L117.955 1.33199C117.667 1.00399 117.423 0.783991 117.223 0.671991C117.023 0.551991 116.823 0.491992 116.623 0.491992C116.607 0.491992 116.599 0.467992 116.599 0.419992C116.599 0.371992 116.607 0.347992 116.623 0.347992C116.783 0.347992 116.947 0.351992 117.115 0.359992C117.283 0.367992 117.439 0.371992 117.583 0.371992C117.871 0.371992 118.131 0.367992 118.363 0.359992C118.595 0.351992 118.775 0.347992 118.903 0.347992C119.007 0.347992 119.083 0.395992 119.131 0.491992C119.187 0.579991 119.311 0.739991 119.503 0.971992L123.907 6.04799L124.003 8.02799ZM124.003 1.88399V8.02799L123.655 7.66799V1.88399C123.655 1.45999 123.567 1.12399 123.391 0.875992C123.215 0.619992 122.971 0.491992 122.659 0.491992C122.643 0.491992 122.635 0.467992 122.635 0.419992C122.635 0.371992 122.643 0.347992 122.659 0.347992C122.835 0.347992 123.015 0.355992 123.199 0.371992C123.391 0.379992 123.599 0.383991 123.823 0.383991C124.039 0.383991 124.251 0.379992 124.459 0.371992C124.667 0.355992 124.859 0.347992 125.035 0.347992C125.051 0.347992 125.059 0.371992 125.059 0.419992C125.059 0.467992 125.051 0.491992 125.035 0.491992C124.715 0.491992 124.463 0.619992 124.279 0.875992C124.095 1.12399 124.003 1.45999 124.003 1.88399ZM125.92 6.87599V1.31999C125.92 1.08799 125.9 0.915992 125.86 0.803992C125.82 0.683991 125.736 0.603991 125.608 0.563991C125.488 0.515991 125.308 0.491992 125.068 0.491992C125.044 0.491992 125.032 0.467992 125.032 0.419992C125.032 0.371992 125.044 0.347992 125.068 0.347992C125.276 0.347992 125.508 0.355992 125.764 0.371992C126.02 0.379992 126.292 0.383991 126.58 0.383991C126.884 0.383991 127.164 0.379992 127.42 0.371992C127.676 0.355992 127.904 0.347992 128.104 0.347992C128.128 0.347992 128.14 0.371992 128.14 0.419992C128.14 0.467992 128.128 0.491992 128.104 0.491992C127.864 0.491992 127.684 0.515991 127.564 0.563991C127.444 0.611992 127.36 0.695992 127.312 0.815992C127.272 0.935992 127.252 1.11199 127.252 1.34399V6.87599C127.252 7.10799 127.272 7.28399 127.312 7.40399C127.352 7.52399 127.432 7.60399 127.552 7.64399C127.672 7.68399 127.856 7.70399 128.104 7.70399C128.136 7.70399 128.152 7.72799 128.152 7.77599C128.152 7.82399 128.136 7.84799 128.104 7.84799C127.896 7.84799 127.664 7.84399 127.408 7.83599C127.16 7.82799 126.884 7.82399 126.58 7.82399C126.292 7.82399 126.016 7.82799 125.752 7.83599C125.488 7.84399 125.252 7.84799 125.044 7.84799C125.028 7.84799 125.02 7.82399 125.02 7.77599C125.02 7.72799 125.028 7.70399 125.044 7.70399C125.292 7.70399 125.476 7.68399 125.596 7.64399C125.724 7.60399 125.808 7.52399 125.848 7.40399C125.896 7.28399 125.92 7.10799 125.92 6.87599ZM129.088 6.10799L127.444 3.88799L128.404 2.96399L130.24 5.43599C130.552 5.87599 130.816 6.23999 131.032 6.52799C131.248 6.80799 131.428 7.03199 131.572 7.19999C131.724 7.35999 131.856 7.47599 131.968 7.54799C132.08 7.61999 132.188 7.66399 132.292 7.67999C132.404 7.69599 132.524 7.70399 132.652 7.70399C132.676 7.70399 132.688 7.72799 132.688 7.77599C132.688 7.82399 132.676 7.84799 132.652 7.84799C132.3 7.84799 132.016 7.84799 131.8 7.84799C131.584 7.84799 131.42 7.84799 131.308 7.84799C131.108 7.84799 130.952 7.85199 130.84 7.85999C130.728 7.87599 130.628 7.86799 130.54 7.83599C130.46 7.80399 130.364 7.73199 130.252 7.61999C130.148 7.50799 130.004 7.33199 129.82 7.09199C129.644 6.85199 129.4 6.52399 129.088 6.10799ZM126.412 4.75199L129.508 1.58399C129.804 1.28799 129.912 1.03199 129.832 0.815992C129.76 0.599992 129.524 0.491992 129.124 0.491992C129.1 0.491992 129.088 0.467992 129.088 0.419992C129.088 0.371992 129.1 0.347992 129.124 0.347992C129.34 0.347992 129.56 0.355992 129.784 0.371992C130.008 0.379992 130.304 0.383991 130.672 0.383991C131.056 0.383991 131.36 0.379992 131.584 0.371992C131.808 0.355992 132.024 0.347992 132.232 0.347992C132.256 0.347992 132.268 0.371992 132.268 0.419992C132.268 0.467992 132.256 0.491992 132.232 0.491992C131.864 0.491992 131.46 0.599992 131.02 0.815992C130.58 1.02399 130.18 1.30399 129.82 1.65599L126.736 4.78799L126.412 4.75199ZM136.017 7.99199C135.441 7.99199 134.917 7.89199 134.445 7.69199C133.981 7.48399 133.581 7.19999 133.245 6.83999C132.917 6.47999 132.661 6.06799 132.477 5.60399C132.301 5.13199 132.213 4.63199 132.213 4.10399C132.213 3.45599 132.337 2.88799 132.585 2.39999C132.841 1.91199 133.177 1.50799 133.593 1.18799C134.009 0.859992 134.465 0.615992 134.961 0.455991C135.457 0.295991 135.949 0.215991 136.437 0.215991C137.029 0.215991 137.557 0.323992 138.021 0.539992C138.493 0.747992 138.893 1.03199 139.221 1.39199C139.549 1.75199 139.797 2.15999 139.965 2.61599C140.141 3.07199 140.229 3.53999 140.229 4.01999C140.229 4.57999 140.117 5.09999 139.893 5.57999C139.669 6.05999 139.361 6.47999 138.969 6.83999C138.585 7.19999 138.137 7.48399 137.625 7.69199C137.121 7.89199 136.585 7.99199 136.017 7.99199ZM136.413 7.69199C136.861 7.69199 137.261 7.56399 137.613 7.30799C137.965 7.05199 138.241 6.67599 138.441 6.17999C138.649 5.68399 138.753 5.07999 138.753 4.36799C138.753 3.63199 138.641 2.97599 138.417 2.39999C138.193 1.82399 137.873 1.37199 137.457 1.04399C137.041 0.707992 136.541 0.539992 135.957 0.539992C135.229 0.539992 134.669 0.815992 134.277 1.36799C133.885 1.91999 133.689 2.68399 133.689 3.65999C133.689 4.24399 133.757 4.78399 133.893 5.27999C134.029 5.76799 134.217 6.19599 134.457 6.56399C134.705 6.92399 134.993 7.20399 135.321 7.40399C135.657 7.59599 136.021 7.69199 136.413 7.69199ZM141.151 7.97999C140.927 7.97999 140.747 7.91599 140.611 7.78799C140.483 7.65199 140.419 7.47199 140.419 7.24799C140.419 7.03999 140.483 6.87199 140.611 6.74399C140.747 6.61599 140.927 6.55199 141.151 6.55199C141.383 6.55199 141.559 6.61599 141.679 6.74399C141.799 6.87199 141.859 7.03999 141.859 7.24799C141.859 7.47199 141.799 7.65199 141.679 7.78799C141.559 7.91599 141.383 7.97999 141.151 7.97999Z" fill="black"/>
</svg>
