<svg width="148" height="9" viewBox="0 0 148 9" fill="none" xmlns="http://www.w3.org/2000/svg">
<path d="M0.0240015 8.54401C0.00800148 8.42401 0.00800148 8.29601 0.0240015 8.16001C0.408001 8.12001 0.684002 8.08401 0.852002 8.05201C1.02 8.01201 1.124 7.93201 1.164 7.81201C1.204 7.69201 1.224 7.48801 1.224 7.20001V1.62001C1.224 1.28401 1.204 1.04401 1.164 0.900012C1.124 0.756012 1.02 0.664012 0.852002 0.624012C0.684002 0.576013 0.408001 0.536013 0.0240015 0.504013C0.00800148 0.384013 0.00800148 0.256013 0.0240015 0.120013C0.184001 0.120013 0.380001 0.124012 0.612002 0.132012C0.852002 0.132012 1.088 0.136012 1.32 0.144012C1.552 0.144012 1.74 0.144012 1.884 0.144012C2.036 0.144012 2.22 0.144012 2.436 0.144012C2.66 0.136012 2.884 0.132012 3.108 0.132012C3.34 0.124012 3.536 0.120013 3.696 0.120013C3.72 0.240012 3.72 0.368012 3.696 0.504013C3.328 0.536013 3.064 0.572013 2.904 0.612013C2.744 0.652013 2.644 0.732013 2.604 0.852012C2.564 0.972013 2.544 1.17601 2.544 1.46401V4.42801L5.304 1.50001C5.608 1.17201 5.76 0.948013 5.76 0.828013C5.76 0.724013 5.688 0.652013 5.544 0.612013C5.4 0.564013 5.164 0.528013 4.836 0.504013C4.82 0.368012 4.82 0.240012 4.836 0.120013C4.972 0.120013 5.144 0.124012 5.352 0.132012C5.56 0.132012 5.768 0.136012 5.976 0.144012C6.184 0.144012 6.352 0.144012 6.48 0.144012C6.736 0.144012 6.976 0.140012 7.2 0.132012C7.432 0.124012 7.684 0.120013 7.956 0.120013C7.972 0.248012 7.972 0.376012 7.956 0.504013C7.708 0.528013 7.5 0.560013 7.332 0.600013C7.172 0.640013 7.016 0.708013 6.864 0.804012C6.72 0.900012 6.556 1.03601 6.372 1.21201C6.188 1.38801 5.956 1.62001 5.676 1.90801L3.912 3.73201L6.384 6.98401C6.576 7.23201 6.736 7.43201 6.864 7.58401C6.992 7.72801 7.116 7.84001 7.236 7.92001C7.364 7.99201 7.508 8.04401 7.668 8.07601C7.836 8.10801 8.048 8.13601 8.304 8.16001C8.328 8.28801 8.328 8.41601 8.304 8.54401C8.152 8.54401 7.972 8.54001 7.764 8.53201C7.556 8.53201 7.352 8.53201 7.152 8.53201C6.952 8.52401 6.78 8.52001 6.636 8.52001C6.548 8.52001 6.432 8.52401 6.288 8.53201C6.152 8.53201 6.028 8.53201 5.916 8.53201L3.036 4.65601L2.544 5.19601V7.04401C2.544 7.38001 2.564 7.62401 2.604 7.77601C2.644 7.92001 2.744 8.01201 2.904 8.05201C3.072 8.09201 3.336 8.12801 3.696 8.16001C3.72 8.28801 3.72 8.41601 3.696 8.54401C3.536 8.54401 3.34 8.54001 3.108 8.53201C2.884 8.53201 2.656 8.53201 2.424 8.53201C2.2 8.52401 2.012 8.52001 1.86 8.52001C1.708 8.52001 1.52 8.52401 1.296 8.53201C1.072 8.53201 0.844002 8.53201 0.612002 8.53201C0.388002 8.54001 0.192001 8.54401 0.0240015 8.54401ZM16.2857 4.28401C16.2857 5.14801 16.1097 5.91201 15.7577 6.57601C15.4057 7.24001 14.9097 7.76401 14.2697 8.14801C13.6297 8.52401 12.8737 8.71201 12.0017 8.71201C11.1377 8.71201 10.3977 8.52801 9.78166 8.16001C9.16566 7.79201 8.68966 7.28401 8.35366 6.63601C8.02566 5.98801 7.86166 5.25201 7.86166 4.42801C7.86166 3.57201 8.03766 2.81201 8.38966 2.14801C8.74166 1.47601 9.23766 0.952012 9.87766 0.576012C10.5257 0.192013 11.2817 1.26362e-05 12.1457 1.26362e-05C13.0017 1.26362e-05 13.7377 0.184013 14.3537 0.552013C14.9697 0.920013 15.4457 1.42801 15.7817 2.07601C16.1177 2.71601 16.2857 3.45201 16.2857 4.28401ZM14.7977 4.40401C14.7977 3.91601 14.7497 3.44001 14.6537 2.97601C14.5577 2.51201 14.4017 2.09201 14.1857 1.71601C13.9777 1.34001 13.7017 1.04401 13.3577 0.828013C13.0137 0.604013 12.5937 0.492013 12.0977 0.492013C11.5937 0.492013 11.1657 0.604013 10.8137 0.828013C10.4697 1.05201 10.1897 1.34801 9.97366 1.71601C9.76566 2.08401 9.60966 2.49601 9.50566 2.95201C9.40966 3.40801 9.36166 3.87201 9.36166 4.34401C9.36166 4.80801 9.40966 5.27201 9.50566 5.73601C9.60966 6.19201 9.76966 6.60801 9.98566 6.98401C10.2017 7.36001 10.4857 7.66401 10.8377 7.89601C11.1977 8.12001 11.6297 8.23201 12.1337 8.23201C12.6297 8.23201 13.0457 8.12401 13.3817 7.90801C13.7257 7.69201 14.0017 7.40401 14.2097 7.04401C14.4177 6.67601 14.5657 6.26401 14.6537 5.80801C14.7497 5.35201 14.7977 4.88401 14.7977 4.40401ZM19.4548 8.70001C19.4468 8.70001 19.3148 8.69201 19.0588 8.67601C18.8108 8.66801 18.5228 8.63601 18.1948 8.58001C17.9228 8.53201 17.6748 8.50001 17.4508 8.48401C17.2348 8.46001 17.1028 8.44801 17.0548 8.44801C17.0468 7.78401 17.0108 6.98001 16.9468 6.03601C17.0108 6.02801 17.0748 6.02401 17.1388 6.02401C17.2108 6.02401 17.2748 6.02401 17.3308 6.02401C17.4828 6.72801 17.7348 7.27201 18.0868 7.65601C18.4468 8.04001 18.9188 8.23201 19.5028 8.23201C20.0228 8.23201 20.4468 8.09201 20.7748 7.81201C21.1028 7.52401 21.2668 7.14801 21.2668 6.68401C21.2668 6.33201 21.1748 6.04401 20.9908 5.82001C20.8148 5.59601 20.5788 5.40801 20.2828 5.25601C19.9948 5.09601 19.6868 4.94801 19.3588 4.81201C18.9748 4.64401 18.6068 4.46801 18.2548 4.28401C17.9108 4.09201 17.6268 3.84801 17.4028 3.55201C17.1788 3.25601 17.0668 2.87201 17.0668 2.40001C17.0668 1.89601 17.1908 1.46401 17.4388 1.10401C17.6948 0.744013 18.0348 0.472013 18.4588 0.288013C18.8828 0.0960126 19.3508 1.26362e-05 19.8628 1.26362e-05C20.0228 1.26362e-05 20.1868 0.00801253 20.3548 0.0240123C20.5308 0.0400126 20.7108 0.0640128 20.8948 0.0960128C21.1268 0.128012 21.3028 0.148012 21.4228 0.156013C21.5508 0.164013 21.6348 0.168013 21.6748 0.168013C21.6988 0.168013 21.7428 0.168013 21.8068 0.168013C21.8708 0.160013 21.9228 0.152013 21.9628 0.144012C21.9788 0.496012 21.9948 0.860013 22.0108 1.23601C22.0268 1.61201 22.0508 2.00401 22.0828 2.41201C21.9228 2.43601 21.7908 2.44401 21.6868 2.43601C21.5028 1.74001 21.2748 1.24001 21.0028 0.936013C20.7308 0.624012 20.3428 0.468012 19.8388 0.468012C19.3988 0.468012 19.0228 0.588012 18.7108 0.828013C18.3988 1.06001 18.2428 1.40801 18.2428 1.87201C18.2428 2.12001 18.2988 2.34001 18.4108 2.53201C18.5308 2.72401 18.7268 2.90801 18.9988 3.08401C19.2708 3.26001 19.6468 3.44801 20.1268 3.64801C20.3908 3.76001 20.6548 3.88401 20.9188 4.02001C21.1908 4.15601 21.4388 4.32001 21.6628 4.51201C21.8868 4.69601 22.0668 4.92401 22.2028 5.19601C22.3388 5.46001 22.4068 5.77601 22.4068 6.14401C22.4068 6.68801 22.2708 7.15201 21.9988 7.53601C21.7268 7.91201 21.3668 8.20001 20.9188 8.40001C20.4788 8.60001 19.9908 8.70001 19.4548 8.70001ZM24.4069 8.54401C24.3909 8.42401 24.3909 8.29601 24.4069 8.16001C24.8069 8.12001 25.0909 8.08401 25.2589 8.05201C25.4269 8.01201 25.5309 7.93201 25.5709 7.81201C25.6109 7.69201 25.6309 7.48801 25.6309 7.20001V0.648013H24.7669C24.3429 0.648013 24.0069 0.708013 23.7589 0.828013C23.5189 0.940013 23.3229 1.11201 23.1709 1.34401C23.0269 1.57601 22.8829 1.87201 22.7389 2.23201C22.6109 2.24801 22.4829 2.24801 22.3549 2.23201C22.4029 1.84801 22.4469 1.48001 22.4869 1.12801C22.5349 0.776013 22.5749 0.436013 22.6069 0.108013C23.1269 0.140013 23.7029 0.160013 24.3349 0.168013C24.9669 0.168013 25.6229 0.168013 26.3029 0.168013C26.9909 0.168013 27.6509 0.168013 28.2829 0.168013C28.9229 0.160013 29.4989 0.140013 30.0109 0.108013C30.0429 0.428012 30.0749 0.768012 30.1069 1.12801C30.1389 1.48001 30.1789 1.84801 30.2269 2.23201C30.0909 2.24801 29.9589 2.24801 29.8309 2.23201C29.6789 1.86401 29.5269 1.56401 29.3749 1.33201C29.2229 1.10001 29.0269 0.928013 28.7869 0.816013C28.5549 0.704013 28.2269 0.648013 27.8029 0.648013H26.9509V7.04401C26.9509 7.29201 26.9589 7.48801 26.9749 7.63201C26.9909 7.77601 27.0349 7.88001 27.1069 7.94401C27.1869 8.00801 27.3109 8.05601 27.4789 8.08801C27.6469 8.11201 27.8789 8.13601 28.1749 8.16001C28.1989 8.28801 28.1989 8.41601 28.1749 8.54401C28.0069 8.54401 27.8029 8.54001 27.5629 8.53201C27.3309 8.53201 27.0989 8.53201 26.8669 8.53201C26.6349 8.52401 26.4389 8.52001 26.2789 8.52001C26.1269 8.52001 25.9349 8.52401 25.7029 8.53201C25.4789 8.53201 25.2469 8.53201 25.0069 8.53201C24.7749 8.54001 24.5749 8.54401 24.4069 8.54401ZM32.7471 1.46401V7.04401C32.7471 7.29201 32.7551 7.48801 32.7711 7.63201C32.7871 7.77601 32.8311 7.88001 32.9031 7.94401C32.9751 8.00801 33.0911 8.05601 33.2511 8.08801C33.4111 8.11201 33.6391 8.13601 33.9351 8.16001C33.9591 8.28801 33.9591 8.41601 33.9351 8.54401C33.7751 8.54401 33.5791 8.54001 33.3471 8.53201C33.1151 8.53201 32.8831 8.53201 32.6511 8.53201C32.4271 8.52401 32.2391 8.52001 32.0871 8.52001C31.9351 8.52001 31.7431 8.52401 31.5111 8.53201C31.2871 8.53201 31.0591 8.53201 30.8271 8.53201C30.6031 8.54001 30.4031 8.54401 30.2271 8.54401C30.2031 8.42401 30.2031 8.29601 30.2271 8.16001C30.6111 8.12001 30.8871 8.08401 31.0551 8.05201C31.2231 8.01201 31.3271 7.93201 31.3671 7.81201C31.4071 7.69201 31.4271 7.48801 31.4271 7.20001V1.62001C31.4271 1.28401 31.4071 1.04401 31.3671 0.900012C31.3271 0.756012 31.2231 0.664012 31.0551 0.624012C30.8871 0.576013 30.6111 0.536013 30.2271 0.504013C30.2111 0.384013 30.2111 0.256013 30.2271 0.120013C30.3951 0.120013 30.5951 0.124012 30.8271 0.132012C31.0671 0.132012 31.3031 0.136012 31.5351 0.144012C31.7671 0.144012 31.9591 0.144012 32.1111 0.144012C32.2631 0.144012 32.4511 0.144012 32.6751 0.144012C32.8991 0.136012 33.1271 0.132012 33.3591 0.132012C33.5911 0.124012 33.7831 0.120013 33.9351 0.120013C33.9591 0.240012 33.9591 0.368012 33.9351 0.504013C33.5591 0.536013 33.2871 0.572013 33.1191 0.612013C32.9511 0.652013 32.8471 0.732013 32.8071 0.852012C32.7671 0.972013 32.7471 1.17601 32.7471 1.46401ZM33.4845 8.54401C33.4685 8.41601 33.4685 8.28801 33.4845 8.16001C33.7085 8.13601 33.8885 8.10801 34.0245 8.07601C34.1605 8.04401 34.2765 7.98801 34.3725 7.90801C34.4685 7.82001 34.5605 7.69201 34.6485 7.52401C34.7365 7.34801 34.8405 7.10401 34.9605 6.79201L37.5525 0.144012C37.6405 0.112013 37.7445 0.0880127 37.8645 0.0720124C37.9925 0.0560126 38.1005 0.0480127 38.1885 0.0480127L40.7685 6.90001C40.8805 7.18801 40.9725 7.41601 41.0445 7.58401C41.1165 7.74401 41.1965 7.86001 41.2845 7.93201C41.3725 8.00401 41.4845 8.05601 41.6205 8.08801C41.7565 8.11201 41.9445 8.13601 42.1845 8.16001C42.2005 8.28801 42.2005 8.41601 42.1845 8.54401C41.9045 8.54401 41.6165 8.54001 41.3205 8.53201C41.0245 8.52401 40.7285 8.52001 40.4325 8.52001C40.1285 8.52001 39.8205 8.52401 39.5085 8.53201C39.2045 8.54001 38.9005 8.54401 38.5965 8.54401C38.5725 8.42401 38.5725 8.29601 38.5965 8.16001C38.9885 8.12001 39.2605 8.08401 39.4125 8.05201C39.5645 8.01201 39.6405 7.91601 39.6405 7.76401C39.6405 7.70001 39.6285 7.62801 39.6045 7.54801C39.5805 7.46801 39.5485 7.36801 39.5085 7.24801L38.8245 5.40001H36.1245L35.5245 7.05601C35.4685 7.20801 35.4245 7.33601 35.3925 7.44001C35.3685 7.53601 35.3565 7.62401 35.3565 7.70401C35.3565 7.88001 35.4365 7.99201 35.5965 8.04001C35.7645 8.08001 36.0365 8.12001 36.4125 8.16001C36.4285 8.29601 36.4285 8.42401 36.4125 8.54401C36.1405 8.54401 35.8725 8.54001 35.6085 8.53201C35.3445 8.52401 35.0765 8.52001 34.8045 8.52001C34.5805 8.52001 34.3645 8.52401 34.1565 8.53201C33.9485 8.54001 33.7245 8.54401 33.4845 8.54401ZM36.3045 4.89601H38.6445L37.4685 1.70401L36.3045 4.89601ZM48.9051 8.61601L43.5651 1.60801V6.74401C43.5651 7.04801 43.5731 7.28401 43.5891 7.45201C43.6051 7.61201 43.6531 7.73601 43.7331 7.82401C43.8131 7.90401 43.9371 7.97201 44.1051 8.02801C44.2731 8.08401 44.5131 8.12801 44.8251 8.16001C44.8411 8.28801 44.8411 8.41601 44.8251 8.54401C44.5851 8.54401 44.3171 8.54001 44.0211 8.53201C43.7331 8.52401 43.4891 8.52001 43.2891 8.52001C43.0891 8.52001 42.8411 8.52401 42.5451 8.53201C42.2571 8.54001 41.9971 8.54401 41.7651 8.54401C41.7411 8.42401 41.7411 8.29601 41.7651 8.16001C42.0531 8.12001 42.2771 8.08401 42.4371 8.05201C42.5971 8.01201 42.7131 7.95601 42.7851 7.88401C42.8571 7.80401 42.9011 7.68801 42.9171 7.53601C42.9411 7.38401 42.9531 7.17201 42.9531 6.90001V1.98001C42.9531 1.66001 42.9411 1.40801 42.9171 1.22401C42.9011 1.04001 42.8491 0.904013 42.7611 0.816013C42.6811 0.720013 42.5531 0.652013 42.3771 0.612013C42.2091 0.564013 41.9731 0.524013 41.6691 0.492013C41.6611 0.372012 41.6611 0.248012 41.6691 0.120013C41.9171 0.120013 42.1811 0.124012 42.4611 0.132012C42.7411 0.140012 43.0211 0.144012 43.3011 0.144012C43.3411 0.144012 43.4491 0.144012 43.6251 0.144012C43.8091 0.144012 43.9691 0.140012 44.1051 0.132012L48.9771 6.54001V1.93201C48.9771 1.62801 48.9691 1.39201 48.9531 1.22401C48.9451 1.05601 48.8971 0.932012 48.8091 0.852012C48.6411 0.676012 48.2371 0.564012 47.5971 0.516012C47.5731 0.380012 47.5731 0.252012 47.5971 0.132012C47.7491 0.132012 47.9291 0.136012 48.1371 0.144012C48.3531 0.144012 48.5611 0.148012 48.7611 0.156013C48.9611 0.156013 49.1251 0.156013 49.2531 0.156013C49.4531 0.156013 49.7011 0.152013 49.9971 0.144012C50.2931 0.136012 50.5571 0.132012 50.7891 0.132012C50.8051 0.252012 50.8051 0.376012 50.7891 0.504013C50.4051 0.552012 50.1291 0.608012 49.9611 0.672013C49.7931 0.728013 49.6891 0.836013 49.6491 0.996013C49.6091 1.15601 49.5891 1.41601 49.5891 1.77601V8.55601C49.5091 8.57201 49.4011 8.58401 49.2651 8.59201C49.1291 8.60801 49.0091 8.61601 48.9051 8.61601ZM52.6647 8.54401C52.6487 8.42401 52.6487 8.29601 52.6647 8.16001C53.0647 8.12001 53.3487 8.08401 53.5167 8.05201C53.6847 8.01201 53.7887 7.93201 53.8287 7.81201C53.8687 7.69201 53.8887 7.48801 53.8887 7.20001V0.648013H53.0247C52.6007 0.648013 52.2647 0.708013 52.0167 0.828013C51.7767 0.940013 51.5807 1.11201 51.4287 1.34401C51.2847 1.57601 51.1407 1.87201 50.9967 2.23201C50.8687 2.24801 50.7407 2.24801 50.6127 2.23201C50.6607 1.84801 50.7047 1.48001 50.7447 1.12801C50.7927 0.776013 50.8327 0.436013 50.8647 0.108013C51.3847 0.140013 51.9607 0.160013 52.5927 0.168013C53.2247 0.168013 53.8807 0.168013 54.5607 0.168013C55.2487 0.168013 55.9087 0.168013 56.5407 0.168013C57.1807 0.160013 57.7567 0.140013 58.2687 0.108013C58.3007 0.428012 58.3327 0.768012 58.3647 1.12801C58.3967 1.48001 58.4367 1.84801 58.4847 2.23201C58.3487 2.24801 58.2167 2.24801 58.0887 2.23201C57.9367 1.86401 57.7847 1.56401 57.6327 1.33201C57.4807 1.10001 57.2847 0.928013 57.0447 0.816013C56.8127 0.704013 56.4847 0.648013 56.0607 0.648013H55.2087V7.04401C55.2087 7.29201 55.2167 7.48801 55.2327 7.63201C55.2487 7.77601 55.2927 7.88001 55.3647 7.94401C55.4447 8.00801 55.5687 8.05601 55.7367 8.08801C55.9047 8.11201 56.1367 8.13601 56.4327 8.16001C56.4567 8.28801 56.4567 8.41601 56.4327 8.54401C56.2647 8.54401 56.0607 8.54001 55.8207 8.53201C55.5887 8.53201 55.3567 8.53201 55.1247 8.53201C54.8927 8.52401 54.6967 8.52001 54.5367 8.52001C54.3847 8.52001 54.1927 8.52401 53.9607 8.53201C53.7367 8.53201 53.5047 8.53201 53.2647 8.53201C53.0327 8.54001 52.8327 8.54401 52.6647 8.54401ZM64.2689 1.81201L62.5049 4.95601V7.04401C62.5049 7.29201 62.5129 7.48801 62.5289 7.63201C62.5449 7.77601 62.5889 7.88001 62.6609 7.94401C62.7329 8.00801 62.8489 8.05601 63.0089 8.08801C63.1689 8.11201 63.3969 8.13601 63.6929 8.16001C63.7169 8.28801 63.7169 8.41601 63.6929 8.54401C63.5249 8.54401 63.3249 8.54001 63.0929 8.53201C62.8609 8.53201 62.6289 8.53201 62.3969 8.53201C62.1729 8.52401 61.9849 8.52001 61.8329 8.52001C61.6809 8.52001 61.4929 8.52401 61.2689 8.53201C61.0449 8.53201 60.8169 8.53201 60.5849 8.53201C60.3529 8.54001 60.1529 8.54401 59.9849 8.54401C59.9689 8.42401 59.9689 8.29601 59.9849 8.16001C60.3689 8.12001 60.6449 8.08401 60.8129 8.05201C60.9809 8.01201 61.0849 7.93201 61.1249 7.81201C61.1649 7.68401 61.1849 7.48001 61.1849 7.20001V5.07601L59.3609 1.74001C59.2169 1.46801 59.0969 1.25601 59.0009 1.10401C58.9049 0.944012 58.8089 0.828012 58.7129 0.756013C58.6249 0.676013 58.5129 0.620012 58.3769 0.588012C58.2489 0.556013 58.0689 0.528013 57.8369 0.504013C57.8209 0.376012 57.8209 0.248012 57.8369 0.120013C58.1249 0.120013 58.4209 0.124012 58.7249 0.132012C59.0289 0.140012 59.3289 0.144012 59.6249 0.144012C59.8809 0.144012 60.1649 0.140012 60.4769 0.132012C60.7889 0.124012 61.0889 0.120013 61.3769 0.120013C61.3929 0.240012 61.3929 0.368012 61.3769 0.504013C61.0329 0.536013 60.7889 0.576013 60.6449 0.624012C60.5009 0.664012 60.4289 0.740012 60.4289 0.852012C60.4289 0.908013 60.4489 0.984013 60.4889 1.08001C60.5369 1.16801 60.5969 1.28001 60.6689 1.41601L62.2409 4.35601L63.8249 1.42801C63.9689 1.16401 64.0409 0.984013 64.0409 0.888013C64.0409 0.768013 63.9569 0.688013 63.7889 0.648013C63.6289 0.600013 63.3489 0.552012 62.9489 0.504013C62.9329 0.368012 62.9329 0.240012 62.9489 0.120013C63.0769 0.120013 63.2409 0.124012 63.4409 0.132012C63.6409 0.132012 63.8369 0.136012 64.0289 0.144012C64.2289 0.144012 64.3929 0.144012 64.5209 0.144012C64.7769 0.144012 65.0129 0.140012 65.2289 0.132012C65.4529 0.124012 65.6889 0.120013 65.9369 0.120013C65.9529 0.248012 65.9529 0.376012 65.9369 0.504013C65.7049 0.528013 65.5169 0.556013 65.3729 0.588012C65.2289 0.620012 65.1049 0.680012 65.0009 0.768013C64.8969 0.848013 64.7889 0.972013 64.6769 1.14001C64.5649 1.30001 64.4289 1.52401 64.2689 1.81201ZM72.5183 8.61601L67.1783 1.60801V6.74401C67.1783 7.04801 67.1863 7.28401 67.2023 7.45201C67.2183 7.61201 67.2663 7.73601 67.3463 7.82401C67.4263 7.90401 67.5503 7.97201 67.7183 8.02801C67.8863 8.08401 68.1263 8.12801 68.4383 8.16001C68.4543 8.28801 68.4543 8.41601 68.4383 8.54401C68.1983 8.54401 67.9303 8.54001 67.6343 8.53201C67.3463 8.52401 67.1023 8.52001 66.9023 8.52001C66.7023 8.52001 66.4543 8.52401 66.1583 8.53201C65.8703 8.54001 65.6103 8.54401 65.3783 8.54401C65.3543 8.42401 65.3543 8.29601 65.3783 8.16001C65.6663 8.12001 65.8903 8.08401 66.0503 8.05201C66.2103 8.01201 66.3263 7.95601 66.3983 7.88401C66.4703 7.80401 66.5143 7.68801 66.5303 7.53601C66.5543 7.38401 66.5663 7.17201 66.5663 6.90001V1.98001C66.5663 1.66001 66.5543 1.40801 66.5303 1.22401C66.5143 1.04001 66.4623 0.904013 66.3743 0.816013C66.2943 0.720013 66.1663 0.652013 65.9903 0.612013C65.8223 0.564013 65.5863 0.524013 65.2823 0.492013C65.2743 0.372012 65.2743 0.248012 65.2823 0.120013C65.5303 0.120013 65.7943 0.124012 66.0743 0.132012C66.3543 0.140012 66.6343 0.144012 66.9143 0.144012C66.9543 0.144012 67.0623 0.144012 67.2383 0.144012C67.4223 0.144012 67.5823 0.140012 67.7183 0.132012L72.5903 6.54001V1.93201C72.5903 1.62801 72.5823 1.39201 72.5663 1.22401C72.5583 1.05601 72.5103 0.932012 72.4223 0.852012C72.2543 0.676012 71.8503 0.564012 71.2103 0.516012C71.1863 0.380012 71.1863 0.252012 71.2103 0.132012C71.3623 0.132012 71.5423 0.136012 71.7503 0.144012C71.9663 0.144012 72.1743 0.148012 72.3743 0.156013C72.5743 0.156013 72.7383 0.156013 72.8663 0.156013C73.0663 0.156013 73.3143 0.152013 73.6103 0.144012C73.9063 0.136012 74.1703 0.132012 74.4023 0.132012C74.4183 0.252012 74.4183 0.376012 74.4023 0.504013C74.0183 0.552012 73.7423 0.608012 73.5743 0.672013C73.4063 0.728013 73.3023 0.836013 73.2623 0.996013C73.2223 1.15601 73.2023 1.41601 73.2023 1.77601V8.55601C73.1223 8.57201 73.0143 8.58401 72.8783 8.59201C72.7423 8.60801 72.6223 8.61601 72.5183 8.61601ZM85.2427 4.28401C85.2427 5.14801 85.0667 5.91201 84.7147 6.57601C84.3627 7.24001 83.8667 7.76401 83.2267 8.14801C82.5867 8.52401 81.8307 8.71201 80.9587 8.71201C80.0947 8.71201 79.3547 8.52801 78.7387 8.16001C78.1227 7.79201 77.6467 7.28401 77.3107 6.63601C76.9827 5.98801 76.8187 5.25201 76.8187 4.42801C76.8187 3.57201 76.9947 2.81201 77.3467 2.14801C77.6987 1.47601 78.1947 0.952012 78.8347 0.576012C79.4827 0.192013 80.2387 1.26362e-05 81.1027 1.26362e-05C81.9587 1.26362e-05 82.6947 0.184013 83.3107 0.552013C83.9267 0.920013 84.4027 1.42801 84.7387 2.07601C85.0747 2.71601 85.2427 3.45201 85.2427 4.28401ZM83.7547 4.40401C83.7547 3.91601 83.7067 3.44001 83.6107 2.97601C83.5147 2.51201 83.3587 2.09201 83.1427 1.71601C82.9347 1.34001 82.6587 1.04401 82.3147 0.828013C81.9707 0.604013 81.5507 0.492013 81.0547 0.492013C80.5507 0.492013 80.1227 0.604013 79.7707 0.828013C79.4267 1.05201 79.1467 1.34801 78.9307 1.71601C78.7227 2.08401 78.5667 2.49601 78.4627 2.95201C78.3667 3.40801 78.3187 3.87201 78.3187 4.34401C78.3187 4.80801 78.3667 5.27201 78.4627 5.73601C78.5667 6.19201 78.7267 6.60801 78.9427 6.98401C79.1587 7.36001 79.4427 7.66401 79.7947 7.89601C80.1547 8.12001 80.5867 8.23201 81.0907 8.23201C81.5867 8.23201 82.0027 8.12401 82.3387 7.90801C82.6827 7.69201 82.9587 7.40401 83.1667 7.04401C83.3747 6.67601 83.5227 6.26401 83.6107 5.80801C83.7067 5.35201 83.7547 4.88401 83.7547 4.40401ZM88.4118 8.70001C88.4038 8.70001 88.2718 8.69201 88.0158 8.67601C87.7678 8.66801 87.4798 8.63601 87.1518 8.58001C86.8798 8.53201 86.6318 8.50001 86.4078 8.48401C86.1918 8.46001 86.0598 8.44801 86.0118 8.44801C86.0038 7.78401 85.9678 6.98001 85.9038 6.03601C85.9678 6.02801 86.0318 6.02401 86.0958 6.02401C86.1678 6.02401 86.2318 6.02401 86.2878 6.02401C86.4398 6.72801 86.6918 7.27201 87.0438 7.65601C87.4038 8.04001 87.8758 8.23201 88.4598 8.23201C88.9798 8.23201 89.4038 8.09201 89.7318 7.81201C90.0598 7.52401 90.2238 7.14801 90.2238 6.68401C90.2238 6.33201 90.1318 6.04401 89.9478 5.82001C89.7718 5.59601 89.5358 5.40801 89.2398 5.25601C88.9518 5.09601 88.6438 4.94801 88.3158 4.81201C87.9318 4.64401 87.5638 4.46801 87.2118 4.28401C86.8678 4.09201 86.5838 3.84801 86.3598 3.55201C86.1358 3.25601 86.0238 2.87201 86.0238 2.40001C86.0238 1.89601 86.1478 1.46401 86.3958 1.10401C86.6518 0.744013 86.9918 0.472013 87.4158 0.288013C87.8398 0.0960126 88.3078 1.26362e-05 88.8198 1.26362e-05C88.9798 1.26362e-05 89.1438 0.00801253 89.3118 0.0240123C89.4878 0.0400126 89.6678 0.0640128 89.8518 0.0960128C90.0838 0.128012 90.2598 0.148012 90.3798 0.156013C90.5078 0.164013 90.5918 0.168013 90.6318 0.168013C90.6558 0.168013 90.6998 0.168013 90.7638 0.168013C90.8278 0.160013 90.8798 0.152013 90.9198 0.144012C90.9358 0.496012 90.9518 0.860013 90.9678 1.23601C90.9838 1.61201 91.0078 2.00401 91.0398 2.41201C90.8798 2.43601 90.7478 2.44401 90.6438 2.43601C90.4598 1.74001 90.2318 1.24001 89.9598 0.936013C89.6878 0.624012 89.2998 0.468012 88.7958 0.468012C88.3558 0.468012 87.9798 0.588012 87.6678 0.828013C87.3558 1.06001 87.1998 1.40801 87.1998 1.87201C87.1998 2.12001 87.2558 2.34001 87.3678 2.53201C87.4878 2.72401 87.6838 2.90801 87.9558 3.08401C88.2278 3.26001 88.6038 3.44801 89.0838 3.64801C89.3478 3.76001 89.6118 3.88401 89.8758 4.02001C90.1478 4.15601 90.3958 4.32001 90.6198 4.51201C90.8438 4.69601 91.0238 4.92401 91.1598 5.19601C91.2958 5.46001 91.3638 5.77601 91.3638 6.14401C91.3638 6.68801 91.2278 7.15201 90.9558 7.53601C90.6838 7.91201 90.3238 8.20001 89.8758 8.40001C89.4358 8.60001 88.9478 8.70001 88.4118 8.70001ZM93.3639 8.54401C93.3479 8.42401 93.3479 8.29601 93.3639 8.16001C93.7639 8.12001 94.0479 8.08401 94.2159 8.05201C94.3839 8.01201 94.4879 7.93201 94.5279 7.81201C94.5679 7.69201 94.5879 7.48801 94.5879 7.20001V0.648013H93.7239C93.2999 0.648013 92.9639 0.708013 92.7159 0.828013C92.4759 0.940013 92.2799 1.11201 92.1279 1.34401C91.9839 1.57601 91.8399 1.87201 91.6959 2.23201C91.5679 2.24801 91.4399 2.24801 91.3119 2.23201C91.3599 1.84801 91.4039 1.48001 91.4439 1.12801C91.4919 0.776013 91.5319 0.436013 91.5639 0.108013C92.0839 0.140013 92.6599 0.160013 93.2919 0.168013C93.9239 0.168013 94.5799 0.168013 95.2599 0.168013C95.9479 0.168013 96.6079 0.168013 97.2399 0.168013C97.8799 0.160013 98.4559 0.140013 98.9679 0.108013C98.9999 0.428012 99.0319 0.768012 99.0639 1.12801C99.0959 1.48001 99.1359 1.84801 99.1839 2.23201C99.0479 2.24801 98.9159 2.24801 98.7879 2.23201C98.6359 1.86401 98.4839 1.56401 98.3319 1.33201C98.1799 1.10001 97.9839 0.928013 97.7439 0.816013C97.5119 0.704013 97.1839 0.648013 96.7599 0.648013H95.9079V7.04401C95.9079 7.29201 95.9159 7.48801 95.9319 7.63201C95.9479 7.77601 95.9919 7.88001 96.0639 7.94401C96.1439 8.00801 96.2679 8.05601 96.4359 8.08801C96.6039 8.11201 96.8359 8.13601 97.1319 8.16001C97.1559 8.28801 97.1559 8.41601 97.1319 8.54401C96.9639 8.54401 96.7599 8.54001 96.5199 8.53201C96.2879 8.53201 96.0559 8.53201 95.8239 8.53201C95.5919 8.52401 95.3959 8.52001 95.2359 8.52001C95.0839 8.52001 94.8919 8.52401 94.6599 8.53201C94.4359 8.53201 94.2039 8.53201 93.9639 8.53201C93.7319 8.54001 93.5319 8.54401 93.3639 8.54401ZM97.6564 8.54401C97.6404 8.41601 97.6404 8.28801 97.6564 8.16001C97.8804 8.13601 98.0604 8.10801 98.1964 8.07601C98.3324 8.04401 98.4484 7.98801 98.5444 7.90801C98.6404 7.82001 98.7324 7.69201 98.8204 7.52401C98.9084 7.34801 99.0124 7.10401 99.1324 6.79201L101.724 0.144012C101.812 0.112013 101.916 0.0880127 102.036 0.0720124C102.164 0.0560126 102.272 0.0480127 102.36 0.0480127L104.94 6.90001C105.052 7.18801 105.144 7.41601 105.216 7.58401C105.288 7.74401 105.368 7.86001 105.456 7.93201C105.544 8.00401 105.656 8.05601 105.792 8.08801C105.928 8.11201 106.116 8.13601 106.356 8.16001C106.372 8.28801 106.372 8.41601 106.356 8.54401C106.076 8.54401 105.788 8.54001 105.492 8.53201C105.196 8.52401 104.9 8.52001 104.604 8.52001C104.3 8.52001 103.992 8.52401 103.68 8.53201C103.376 8.54001 103.072 8.54401 102.768 8.54401C102.744 8.42401 102.744 8.29601 102.768 8.16001C103.16 8.12001 103.432 8.08401 103.584 8.05201C103.736 8.01201 103.812 7.91601 103.812 7.76401C103.812 7.70001 103.8 7.62801 103.776 7.54801C103.752 7.46801 103.72 7.36801 103.68 7.24801L102.996 5.40001H100.296L99.6964 7.05601C99.6404 7.20801 99.5964 7.33601 99.5644 7.44001C99.5404 7.53601 99.5284 7.62401 99.5284 7.70401C99.5284 7.88001 99.6084 7.99201 99.7684 8.04001C99.9364 8.08001 100.208 8.12001 100.584 8.16001C100.6 8.29601 100.6 8.42401 100.584 8.54401C100.312 8.54401 100.044 8.54001 99.7804 8.53201C99.5164 8.52401 99.2484 8.52001 98.9764 8.52001C98.7524 8.52001 98.5364 8.52401 98.3284 8.53201C98.1204 8.54001 97.8964 8.54401 97.6564 8.54401ZM100.476 4.89601H102.816L101.64 1.70401L100.476 4.89601ZM109.585 4.81201C109.441 4.81201 109.281 4.80401 109.105 4.78801C108.929 4.77201 108.729 4.74001 108.505 4.69201V7.04401C108.505 7.29201 108.513 7.48801 108.529 7.63201C108.545 7.76801 108.593 7.87201 108.673 7.94401C108.761 8.01601 108.881 8.06401 109.033 8.08801C109.193 8.11201 109.445 8.13601 109.789 8.16001C109.805 8.28801 109.805 8.41601 109.789 8.54401C109.613 8.54401 109.401 8.54001 109.153 8.53201C108.913 8.53201 108.673 8.53201 108.433 8.53201C108.201 8.52401 108.005 8.52001 107.845 8.52001C107.693 8.52001 107.501 8.52401 107.269 8.53201C107.045 8.53201 106.817 8.53201 106.585 8.53201C106.361 8.54001 106.161 8.54401 105.985 8.54401C105.969 8.42401 105.969 8.29601 105.985 8.16001C106.369 8.12001 106.645 8.08401 106.813 8.05201C106.981 8.01201 107.085 7.93201 107.125 7.81201C107.165 7.69201 107.185 7.48801 107.185 7.20001V1.62001C107.185 1.28401 107.165 1.04401 107.125 0.900012C107.085 0.756012 106.981 0.664012 106.813 0.624012C106.645 0.576013 106.369 0.536013 105.985 0.504013C105.969 0.384013 105.969 0.256013 105.985 0.120013C106.145 0.120013 106.345 0.124012 106.585 0.132012C106.833 0.132012 107.073 0.136012 107.305 0.144012C107.537 0.144012 107.705 0.144012 107.809 0.144012C107.961 0.144012 108.149 0.144012 108.373 0.144012C108.605 0.136012 108.833 0.128012 109.057 0.120013C109.281 0.112013 109.457 0.108013 109.585 0.108013C110.089 0.108013 110.557 0.180013 110.989 0.324013C111.421 0.460012 111.769 0.688012 112.033 1.00801C112.297 1.32801 112.429 1.76801 112.429 2.32801C112.429 2.86401 112.305 3.31601 112.057 3.68401C111.809 4.05201 111.469 4.33201 111.037 4.52401C110.613 4.71601 110.129 4.81201 109.585 4.81201ZM108.505 4.21201C108.609 4.23601 108.725 4.26001 108.853 4.28401C108.981 4.30801 109.117 4.32001 109.261 4.32001C109.789 4.32001 110.205 4.14401 110.509 3.79201C110.813 3.43201 110.965 2.96401 110.965 2.38801C110.965 1.82801 110.813 1.38801 110.509 1.06801C110.205 0.748012 109.749 0.588012 109.141 0.588012C109.061 0.588012 108.961 0.592012 108.841 0.600013C108.729 0.608013 108.617 0.620013 108.505 0.636012V4.21201ZM112.623 8.54401C112.607 8.42401 112.607 8.29601 112.623 8.16001C112.999 8.12001 113.267 8.08401 113.427 8.05201C113.587 8.01201 113.687 7.93201 113.727 7.81201C113.767 7.68401 113.787 7.48001 113.787 7.20001V1.62001C113.787 1.28401 113.767 1.04401 113.727 0.900012C113.687 0.756012 113.583 0.664012 113.415 0.624012C113.255 0.576013 112.991 0.536013 112.623 0.504013C112.607 0.384013 112.607 0.256013 112.623 0.120013C112.831 0.120013 113.011 0.124012 113.163 0.132012C113.323 0.132012 113.483 0.132012 113.643 0.132012C113.803 0.132012 113.995 0.136012 114.219 0.144012C114.443 0.144012 114.727 0.144012 115.071 0.144012C115.703 0.144012 116.295 0.144012 116.847 0.144012C117.399 0.136012 117.859 0.132012 118.227 0.132012C118.595 0.124012 118.811 0.120013 118.875 0.120013C118.907 0.416013 118.943 0.720013 118.983 1.03201C119.031 1.34401 119.083 1.67601 119.139 2.02801C119.003 2.04401 118.871 2.04401 118.743 2.02801C118.647 1.78801 118.535 1.57601 118.407 1.39201C118.279 1.20801 118.147 1.06801 118.011 0.972012C117.859 0.860012 117.675 0.776012 117.459 0.720013C117.251 0.664012 116.991 0.636012 116.679 0.636012H115.107V3.91201H115.767C116.151 3.91201 116.443 3.88801 116.643 3.84001C116.843 3.78401 116.991 3.66801 117.087 3.49201C117.183 3.30801 117.259 3.02001 117.315 2.62801C117.459 2.60401 117.595 2.60401 117.723 2.62801C117.715 3.10801 117.707 3.46001 117.699 3.68401C117.699 3.90801 117.699 4.07601 117.699 4.18801C117.699 4.31601 117.699 4.51201 117.699 4.77601C117.707 5.03201 117.715 5.36401 117.723 5.77201C117.603 5.79601 117.467 5.79601 117.315 5.77201C117.267 5.34801 117.195 5.04401 117.099 4.86001C117.003 4.67601 116.859 4.56001 116.667 4.51201C116.483 4.46401 116.219 4.44001 115.875 4.44001H115.107V7.04401C115.107 7.31601 115.107 7.53601 115.107 7.70401C115.115 7.86401 115.123 7.96801 115.131 8.01601H116.775C117.175 8.01601 117.495 7.98401 117.735 7.92001C117.983 7.84801 118.187 7.74401 118.347 7.60801C118.459 7.52001 118.591 7.36801 118.743 7.15201C118.895 6.92801 119.039 6.67201 119.175 6.38401C119.303 6.36801 119.427 6.36801 119.547 6.38401C119.467 6.83201 119.399 7.23601 119.343 7.59601C119.287 7.95601 119.239 8.26801 119.199 8.53201C118.839 8.53201 118.447 8.53201 118.023 8.53201C117.599 8.53201 117.175 8.53201 116.751 8.53201C116.327 8.52401 115.939 8.52001 115.587 8.52001C115.243 8.52001 114.967 8.52001 114.759 8.52001C114.383 8.52001 114.075 8.52401 113.835 8.53201C113.603 8.53201 113.395 8.53201 113.211 8.53201C113.035 8.54001 112.839 8.54401 112.623 8.54401ZM126.854 8.61601L121.514 1.60801V6.74401C121.514 7.04801 121.522 7.28401 121.538 7.45201C121.554 7.61201 121.602 7.73601 121.682 7.82401C121.762 7.90401 121.886 7.97201 122.054 8.02801C122.222 8.08401 122.462 8.12801 122.774 8.16001C122.79 8.28801 122.79 8.41601 122.774 8.54401C122.534 8.54401 122.266 8.54001 121.97 8.53201C121.682 8.52401 121.438 8.52001 121.238 8.52001C121.038 8.52001 120.79 8.52401 120.494 8.53201C120.206 8.54001 119.946 8.54401 119.714 8.54401C119.69 8.42401 119.69 8.29601 119.714 8.16001C120.002 8.12001 120.226 8.08401 120.386 8.05201C120.546 8.01201 120.662 7.95601 120.734 7.88401C120.806 7.80401 120.85 7.68801 120.866 7.53601C120.89 7.38401 120.902 7.17201 120.902 6.90001V1.98001C120.902 1.66001 120.89 1.40801 120.866 1.22401C120.85 1.04001 120.798 0.904013 120.71 0.816013C120.63 0.720013 120.502 0.652013 120.326 0.612013C120.158 0.564013 119.922 0.524013 119.618 0.492013C119.61 0.372012 119.61 0.248012 119.618 0.120013C119.866 0.120013 120.13 0.124012 120.41 0.132012C120.69 0.140012 120.97 0.144012 121.25 0.144012C121.29 0.144012 121.398 0.144012 121.574 0.144012C121.758 0.144012 121.918 0.140012 122.054 0.132012L126.926 6.54001V1.93201C126.926 1.62801 126.918 1.39201 126.902 1.22401C126.894 1.05601 126.846 0.932012 126.758 0.852012C126.59 0.676012 126.186 0.564012 125.546 0.516012C125.522 0.380012 125.522 0.252012 125.546 0.132012C125.698 0.132012 125.878 0.136012 126.086 0.144012C126.302 0.144012 126.51 0.148012 126.71 0.156013C126.91 0.156013 127.074 0.156013 127.202 0.156013C127.402 0.156013 127.65 0.152013 127.946 0.144012C128.242 0.136012 128.506 0.132012 128.738 0.132012C128.754 0.252012 128.754 0.376012 128.738 0.504013C128.354 0.552012 128.078 0.608012 127.91 0.672013C127.742 0.728013 127.638 0.836013 127.598 0.996013C127.558 1.15601 127.538 1.41601 127.538 1.77601V8.55601C127.458 8.57201 127.35 8.58401 127.214 8.59201C127.078 8.60801 126.958 8.61601 126.854 8.61601ZM128.778 8.54401C128.762 8.42401 128.762 8.29601 128.778 8.16001C129.162 8.12001 129.438 8.08401 129.606 8.05201C129.774 8.01201 129.878 7.93201 129.918 7.81201C129.958 7.69201 129.978 7.48801 129.978 7.20001V1.62001C129.978 1.28401 129.958 1.04401 129.918 0.900012C129.878 0.756012 129.774 0.664012 129.606 0.624012C129.438 0.576013 129.162 0.536013 128.778 0.504013C128.762 0.384013 128.762 0.256013 128.778 0.120013C128.938 0.120013 129.134 0.124012 129.366 0.132012C129.606 0.132012 129.842 0.136012 130.074 0.144012C130.306 0.144012 130.494 0.144012 130.638 0.144012C130.79 0.144012 130.974 0.144012 131.19 0.144012C131.414 0.136012 131.638 0.132012 131.862 0.132012C132.094 0.124012 132.29 0.120013 132.45 0.120013C132.474 0.240012 132.474 0.368012 132.45 0.504013C132.082 0.536013 131.818 0.572013 131.658 0.612013C131.498 0.652013 131.398 0.732013 131.358 0.852012C131.318 0.972013 131.298 1.17601 131.298 1.46401V4.42801L134.058 1.50001C134.362 1.17201 134.514 0.948013 134.514 0.828013C134.514 0.724013 134.442 0.652013 134.298 0.612013C134.154 0.564013 133.918 0.528013 133.59 0.504013C133.574 0.368012 133.574 0.240012 133.59 0.120013C133.726 0.120013 133.898 0.124012 134.106 0.132012C134.314 0.132012 134.522 0.136012 134.73 0.144012C134.938 0.144012 135.106 0.144012 135.234 0.144012C135.49 0.144012 135.73 0.140012 135.954 0.132012C136.186 0.124012 136.438 0.120013 136.71 0.120013C136.726 0.248012 136.726 0.376012 136.71 0.504013C136.462 0.528013 136.254 0.560013 136.086 0.600013C135.926 0.640013 135.77 0.708013 135.618 0.804012C135.474 0.900012 135.31 1.03601 135.126 1.21201C134.942 1.38801 134.71 1.62001 134.43 1.90801L132.666 3.73201L135.138 6.98401C135.33 7.23201 135.49 7.43201 135.618 7.58401C135.746 7.72801 135.87 7.84001 135.99 7.92001C136.118 7.99201 136.262 8.04401 136.422 8.07601C136.59 8.10801 136.802 8.13601 137.058 8.16001C137.082 8.28801 137.082 8.41601 137.058 8.54401C136.906 8.54401 136.726 8.54001 136.518 8.53201C136.31 8.53201 136.106 8.53201 135.906 8.53201C135.706 8.52401 135.534 8.52001 135.39 8.52001C135.302 8.52001 135.186 8.52401 135.042 8.53201C134.906 8.53201 134.782 8.53201 134.67 8.53201L131.79 4.65601L131.298 5.19601V7.04401C131.298 7.38001 131.318 7.62401 131.358 7.77601C131.398 7.92001 131.498 8.01201 131.658 8.05201C131.826 8.09201 132.09 8.12801 132.45 8.16001C132.474 8.28801 132.474 8.41601 132.45 8.54401C132.29 8.54401 132.094 8.54001 131.862 8.53201C131.638 8.53201 131.41 8.53201 131.178 8.53201C130.954 8.52401 130.766 8.52001 130.614 8.52001C130.462 8.52001 130.274 8.52401 130.05 8.53201C129.826 8.53201 129.598 8.53201 129.366 8.53201C129.142 8.54001 128.946 8.54401 128.778 8.54401ZM145.04 4.28401C145.04 5.14801 144.864 5.91201 144.512 6.57601C144.16 7.24001 143.664 7.76401 143.024 8.14801C142.384 8.52401 141.628 8.71201 140.756 8.71201C139.892 8.71201 139.152 8.52801 138.536 8.16001C137.92 7.79201 137.444 7.28401 137.108 6.63601C136.78 5.98801 136.616 5.25201 136.616 4.42801C136.616 3.57201 136.792 2.81201 137.144 2.14801C137.496 1.47601 137.992 0.952012 138.632 0.576012C139.28 0.192013 140.036 1.26362e-05 140.9 1.26362e-05C141.756 1.26362e-05 142.492 0.184013 143.108 0.552013C143.724 0.920013 144.2 1.42801 144.536 2.07601C144.872 2.71601 145.04 3.45201 145.04 4.28401ZM143.552 4.40401C143.552 3.91601 143.504 3.44001 143.408 2.97601C143.312 2.51201 143.156 2.09201 142.94 1.71601C142.732 1.34001 142.456 1.04401 142.112 0.828013C141.768 0.604013 141.348 0.492013 140.852 0.492013C140.348 0.492013 139.92 0.604013 139.568 0.828013C139.224 1.05201 138.944 1.34801 138.728 1.71601C138.52 2.08401 138.364 2.49601 138.26 2.95201C138.164 3.40801 138.116 3.87201 138.116 4.34401C138.116 4.80801 138.164 5.27201 138.26 5.73601C138.364 6.19201 138.524 6.60801 138.74 6.98401C138.956 7.36001 139.24 7.66401 139.592 7.89601C139.952 8.12001 140.384 8.23201 140.888 8.23201C141.384 8.23201 141.8 8.12401 142.136 7.90801C142.48 7.69201 142.756 7.40401 142.964 7.04401C143.172 6.67601 143.32 6.26401 143.408 5.80801C143.504 5.35201 143.552 4.88401 143.552 4.40401ZM145.322 7.78801C145.322 7.54001 145.406 7.33201 145.574 7.16401C145.742 6.98801 145.946 6.90001 146.186 6.90001C146.458 6.90001 146.674 6.99201 146.834 7.17601C147.002 7.35201 147.086 7.55601 147.086 7.78801C147.086 8.02801 147.002 8.23601 146.834 8.41201C146.674 8.58801 146.458 8.67601 146.186 8.67601C145.946 8.67601 145.742 8.59201 145.574 8.42401C145.406 8.24801 145.322 8.03601 145.322 7.78801Z" fill="black"/>
</svg>
