<svg width="139" height="9" viewBox="0 0 139 9" fill="none" xmlns="http://www.w3.org/2000/svg">
<path d="M0.947999 1.31999C0.947999 1.07999 0.923999 0.903992 0.875999 0.791992C0.835999 0.679991 0.751999 0.603991 0.623999 0.563991C0.495999 0.515991 0.299999 0.491992 0.0359994 0.491992C0.0199994 0.491992 0.0119994 0.467992 0.0119994 0.419992C0.0119994 0.371992 0.0199994 0.347992 0.0359994 0.347992L0.671999 0.359992C1.024 0.375992 1.304 0.383991 1.512 0.383991C1.752 0.383991 2.048 0.375992 2.4 0.359992L3 0.347992C3.024 0.347992 3.036 0.371992 3.036 0.419992C3.036 0.467992 3.024 0.491992 3 0.491992C2.736 0.491992 2.54 0.515991 2.412 0.563991C2.292 0.611992 2.208 0.695992 2.16 0.815992C2.112 0.927992 2.088 1.10399 2.088 1.34399V6.87599C2.088 7.12399 2.108 7.30399 2.148 7.41599C2.196 7.52799 2.28 7.60399 2.4 7.64399C2.528 7.68399 2.728 7.70399 3 7.70399C3.032 7.70399 3.048 7.72799 3.048 7.77599C3.048 7.82399 3.032 7.84799 3 7.84799C2.744 7.84799 2.54 7.84399 2.388 7.83599L1.512 7.82399L0.659999 7.83599C0.507999 7.84399 0.295999 7.84799 0.0239994 7.84799C0.00799941 7.84799 -5.96046e-07 7.82399 -5.96046e-07 7.77599C-5.96046e-07 7.72799 0.00799941 7.70399 0.0239994 7.70399C0.295999 7.70399 0.491999 7.68399 0.611999 7.64399C0.739999 7.60399 0.827999 7.52799 0.875999 7.41599C0.923999 7.29599 0.947999 7.11599 0.947999 6.87599V1.31999ZM2.328 3.82799L3.168 3.05999L4.968 5.44799C5.512 6.19199 5.924 6.71999 6.204 7.03199C6.484 7.33599 6.704 7.52399 6.864 7.59599C7.024 7.66799 7.24 7.70399 7.512 7.70399C7.536 7.70399 7.548 7.72799 7.548 7.77599C7.548 7.82399 7.536 7.84799 7.512 7.84799H6.168L5.7 7.85999C5.588 7.85999 5.492 7.83599 5.412 7.78799C5.332 7.73999 5.24 7.65199 5.136 7.52399C5.032 7.39599 4.84 7.14399 4.56 6.76799L4.068 6.10799L2.328 3.82799ZM4.452 1.48799C4.7 1.24799 4.824 1.03999 4.824 0.863992C4.824 0.751992 4.76 0.663992 4.632 0.599992C4.512 0.527992 4.332 0.491992 4.092 0.491992C4.076 0.491992 4.068 0.467992 4.068 0.419992C4.068 0.371992 4.076 0.347992 4.092 0.347992L4.632 0.359992C4.984 0.375992 5.304 0.383991 5.592 0.383991C5.904 0.383991 6.22 0.375992 6.54 0.359992L7.056 0.347992C7.08 0.347992 7.092 0.371992 7.092 0.419992C7.092 0.467992 7.08 0.491992 7.056 0.491992C6.704 0.491992 6.316 0.587991 5.892 0.779991C5.476 0.963991 5.096 1.22399 4.752 1.55999L1.68 4.65599L1.356 4.63199L4.452 1.48799ZM10.95 7.99199C10.206 7.99199 9.54197 7.81999 8.95797 7.47599C8.38197 7.12399 7.93397 6.65199 7.61397 6.05999C7.30197 5.45999 7.14597 4.80799 7.14597 4.10399C7.14597 3.27999 7.35397 2.57599 7.76997 1.99199C8.18597 1.39999 8.71797 0.955992 9.36597 0.659992C10.022 0.363991 10.69 0.215991 11.37 0.215991C12.13 0.215991 12.798 0.395992 13.374 0.755992C13.95 1.10799 14.39 1.57599 14.694 2.15999C15.006 2.74399 15.162 3.36399 15.162 4.01999C15.162 4.74799 14.97 5.41599 14.586 6.02399C14.202 6.63199 13.686 7.11199 13.038 7.46399C12.398 7.81599 11.702 7.99199 10.95 7.99199ZM11.358 7.70399C11.838 7.70399 12.266 7.57599 12.642 7.31999C13.026 7.05599 13.326 6.67199 13.542 6.16799C13.766 5.66399 13.878 5.06399 13.878 4.36799C13.878 3.62399 13.754 2.96399 13.506 2.38799C13.266 1.80399 12.918 1.34799 12.462 1.01999C12.014 0.691992 11.486 0.527992 10.878 0.527992C10.094 0.527992 9.48997 0.807992 9.06597 1.36799C8.64197 1.91999 8.42997 2.68799 8.42997 3.67199C8.42997 4.43999 8.55397 5.13199 8.80197 5.74799C9.04997 6.35599 9.39797 6.83599 9.84597 7.18799C10.294 7.53199 10.798 7.70399 11.358 7.70399ZM17.2135 1.61999C17.2135 1.91599 17.2855 2.17999 17.4295 2.41199C17.5815 2.63599 17.7655 2.83199 17.9815 2.99999C18.1975 3.15999 18.4935 3.35999 18.8695 3.59999C19.2775 3.85599 19.5975 4.07599 19.8295 4.25999C20.0695 4.44399 20.2735 4.67199 20.4415 4.94399C20.6095 5.20799 20.6935 5.51999 20.6935 5.87999C20.6935 6.28799 20.5855 6.65199 20.3695 6.97199C20.1615 7.29199 19.8615 7.54399 19.4695 7.72799C19.0855 7.90399 18.6455 7.99199 18.1495 7.99199C17.8135 7.99199 17.4655 7.94799 17.1055 7.85999C16.7535 7.77199 16.4855 7.66399 16.3015 7.53599C16.2295 7.48799 16.1895 7.41199 16.1815 7.30799L16.1095 5.49599V5.48399C16.1095 5.45199 16.1295 5.43599 16.1695 5.43599C16.2095 5.42799 16.2335 5.43999 16.2415 5.47199C16.5055 6.12799 16.8055 6.66799 17.1415 7.09199C17.4855 7.51599 17.9175 7.72799 18.4375 7.72799C18.7895 7.72799 19.0815 7.63599 19.3135 7.45199C19.5455 7.25999 19.6615 6.94399 19.6615 6.50399C19.6615 6.15199 19.5815 5.84399 19.4215 5.57999C19.2695 5.31599 19.0775 5.09599 18.8455 4.91999C18.6215 4.74399 18.3135 4.52799 17.9215 4.27199C17.5375 4.02399 17.2375 3.81599 17.0215 3.64799C16.8055 3.47199 16.6215 3.25999 16.4695 3.01199C16.3175 2.75599 16.2415 2.45999 16.2415 2.12399C16.2415 1.70799 16.3575 1.35599 16.5895 1.06799C16.8215 0.779992 17.1215 0.567992 17.4895 0.431992C17.8655 0.287992 18.2575 0.215991 18.6655 0.215991C18.9295 0.215991 19.1975 0.243992 19.4695 0.299992C19.7415 0.347992 19.9735 0.411992 20.1655 0.491992C20.2855 0.539991 20.3455 0.615991 20.3455 0.719991L20.3695 2.33999C20.3695 2.37199 20.3495 2.39199 20.3095 2.39999C20.2775 2.40799 20.2535 2.39999 20.2375 2.37599C20.0775 1.88799 19.8615 1.44799 19.5895 1.05599C19.3255 0.655991 18.9255 0.455991 18.3895 0.455991C18.0295 0.455991 17.7415 0.563991 17.5255 0.779991C17.3175 0.987992 17.2135 1.26799 17.2135 1.61999ZM23.3475 0.599992C22.8595 0.599992 22.4595 0.751992 22.1475 1.05599C21.8355 1.35199 21.5955 1.79999 21.4275 2.39999C21.4275 2.42399 21.4035 2.43599 21.3555 2.43599C21.3155 2.42799 21.2955 2.41599 21.2955 2.39999C21.3275 2.08799 21.3635 1.68799 21.4035 1.19999C21.4435 0.703991 21.4635 0.331991 21.4635 0.0839918C21.4635 0.0439918 21.4835 0.0239918 21.5235 0.0239918C21.5715 0.0239918 21.5955 0.0439918 21.5955 0.0839918C21.5955 0.259992 21.8195 0.347992 22.2675 0.347992C22.9555 0.371992 23.7595 0.383991 24.6795 0.383991C25.1515 0.383991 25.6515 0.375992 26.1795 0.359992L26.9955 0.347992C27.2995 0.347992 27.5195 0.327992 27.6555 0.287991C27.7995 0.247991 27.8915 0.167991 27.9315 0.0479915C27.9395 0.0159914 27.9635 -8.58307e-06 28.0035 -8.58307e-06C28.0435 -8.58307e-06 28.0635 0.0159914 28.0635 0.0479915C28.0395 0.295992 28.0155 0.671992 27.9915 1.17599C27.9675 1.67999 27.9555 2.08799 27.9555 2.39999C27.9555 2.41599 27.9315 2.42399 27.8835 2.42399C27.8435 2.42399 27.8195 2.41599 27.8115 2.39999C27.7315 1.78399 27.5435 1.33199 27.2475 1.04399C26.9515 0.747992 26.5515 0.599992 26.0475 0.599992C25.8235 0.599992 25.6555 0.619992 25.5435 0.659992C25.4395 0.699991 25.3675 0.771991 25.3275 0.875992C25.2875 0.971992 25.2675 1.12799 25.2675 1.34399V6.87599C25.2675 7.11599 25.2915 7.29599 25.3395 7.41599C25.3955 7.52799 25.4955 7.60399 25.6395 7.64399C25.7835 7.68399 26.0115 7.70399 26.3235 7.70399C26.3475 7.70399 26.3595 7.72799 26.3595 7.77599C26.3595 7.82399 26.3475 7.84799 26.3235 7.84799C26.0435 7.84799 25.8235 7.84399 25.6635 7.83599L24.6795 7.82399L23.7435 7.83599C23.5755 7.84399 23.3435 7.84799 23.0475 7.84799C23.0315 7.84799 23.0235 7.82399 23.0235 7.77599C23.0235 7.72799 23.0315 7.70399 23.0475 7.70399C23.3595 7.70399 23.5875 7.68399 23.7315 7.64399C23.8835 7.60399 23.9835 7.52799 24.0315 7.41599C24.0875 7.29599 24.1155 7.11599 24.1155 6.87599V1.31999C24.1155 1.11199 24.0955 0.959991 24.0555 0.863992C24.0155 0.759992 23.9435 0.691992 23.8395 0.659992C23.7355 0.619992 23.5715 0.599992 23.3475 0.599992ZM30.6073 6.87599C30.6073 7.12399 30.6273 7.30399 30.6673 7.41599C30.7153 7.52799 30.7993 7.60399 30.9193 7.64399C31.0473 7.68399 31.2473 7.70399 31.5193 7.70399C31.5433 7.70399 31.5553 7.72799 31.5553 7.77599C31.5553 7.82399 31.5433 7.84799 31.5193 7.84799C31.2633 7.84799 31.0593 7.84399 30.9073 7.83599L30.0193 7.82399L29.1553 7.83599C29.0033 7.84399 28.7953 7.84799 28.5313 7.84799C28.5073 7.84799 28.4953 7.82399 28.4953 7.77599C28.4953 7.72799 28.5073 7.70399 28.5313 7.70399C28.8033 7.70399 28.9993 7.68399 29.1193 7.64399C29.2473 7.60399 29.3353 7.52799 29.3833 7.41599C29.4313 7.29599 29.4553 7.11599 29.4553 6.87599V1.31999C29.4553 1.07999 29.4313 0.903992 29.3833 0.791992C29.3353 0.679991 29.2473 0.603991 29.1193 0.563991C28.9993 0.515991 28.8033 0.491992 28.5313 0.491992C28.5073 0.491992 28.4953 0.467992 28.4953 0.419992C28.4953 0.371992 28.5073 0.347992 28.5313 0.347992L29.1553 0.359992C29.5073 0.375992 29.7953 0.383991 30.0193 0.383991C30.2673 0.383991 30.5673 0.375992 30.9193 0.359992L31.5193 0.347992C31.5433 0.347992 31.5553 0.371992 31.5553 0.419992C31.5553 0.467992 31.5433 0.491992 31.5193 0.491992C31.2553 0.491992 31.0593 0.515991 30.9313 0.563991C30.8033 0.611992 30.7153 0.695992 30.6673 0.815992C30.6273 0.927992 30.6073 1.10399 30.6073 1.34399V6.87599ZM33.8737 4.60799H37.2337L37.3177 4.90799H33.7177L33.8737 4.60799ZM40.1017 7.70399C40.1337 7.70399 40.1497 7.72799 40.1497 7.77599C40.1497 7.82399 40.1337 7.84799 40.1017 7.84799C39.9497 7.84799 39.7057 7.83999 39.3697 7.82399C39.0337 7.80799 38.7897 7.79999 38.6377 7.79999C38.4377 7.79999 38.2017 7.80799 37.9297 7.82399C37.6577 7.83999 37.4457 7.84799 37.2937 7.84799C37.2617 7.84799 37.2457 7.82399 37.2457 7.77599C37.2457 7.72799 37.2617 7.70399 37.2937 7.70399C37.5337 7.70399 37.7057 7.67999 37.8097 7.63199C37.9137 7.57599 37.9657 7.48799 37.9657 7.36799C37.9657 7.24799 37.8977 7.04399 37.7617 6.75599L35.2537 1.65599L35.7457 0.851992L33.3697 6.20399C33.2657 6.44399 33.2137 6.65999 33.2137 6.85199C33.2137 7.13199 33.3137 7.34399 33.5137 7.48799C33.7137 7.63199 33.9937 7.70399 34.3537 7.70399C34.3937 7.70399 34.4137 7.72799 34.4137 7.77599C34.4137 7.82399 34.3937 7.84799 34.3537 7.84799C34.2097 7.84799 34.0017 7.83999 33.7297 7.82399C33.4257 7.80799 33.1617 7.79999 32.9377 7.79999C32.7217 7.79999 32.4697 7.80799 32.1817 7.82399C31.9257 7.83999 31.7137 7.84799 31.5457 7.84799C31.5057 7.84799 31.4857 7.82399 31.4857 7.77599C31.4857 7.72799 31.5057 7.70399 31.5457 7.70399C31.7697 7.70399 31.9577 7.65999 32.1097 7.57199C32.2617 7.48399 32.4097 7.32799 32.5537 7.10399C32.6977 6.87199 32.8697 6.53199 33.0697 6.08399L35.6497 0.275991C35.6657 0.251992 35.7017 0.239992 35.7577 0.239992C35.8137 0.239992 35.8457 0.251992 35.8537 0.275991L38.7937 6.20399C39.0657 6.77999 39.2937 7.17599 39.4777 7.39199C39.6697 7.59999 39.8777 7.70399 40.1017 7.70399ZM41.1009 0.623991L41.4249 0.647992V6.39599C41.4249 6.81999 41.5049 7.14399 41.6649 7.36799C41.8329 7.59199 42.0769 7.70399 42.3969 7.70399C42.4209 7.70399 42.4329 7.72799 42.4329 7.77599C42.4329 7.82399 42.4209 7.84799 42.3969 7.84799C42.1889 7.84799 42.0289 7.84399 41.9169 7.83599L41.2809 7.82399L40.5729 7.83599C40.4449 7.84399 40.2609 7.84799 40.0209 7.84799C39.9969 7.84799 39.9849 7.82399 39.9849 7.77599C39.9849 7.72799 39.9969 7.70399 40.0209 7.70399C40.3649 7.70399 40.6289 7.59199 40.8129 7.36799C41.0049 7.14399 41.1009 6.81999 41.1009 6.39599V0.623991ZM47.1969 8.01599C47.1969 8.03999 47.1769 8.05599 47.1369 8.06399C47.0969 8.07199 47.0689 8.06799 47.0529 8.05199L41.2809 1.33199C41.0089 1.01999 40.7689 0.803992 40.5609 0.683992C40.3529 0.555992 40.1489 0.491992 39.9489 0.491992C39.9249 0.491992 39.9129 0.467992 39.9129 0.419992C39.9129 0.371992 39.9249 0.347992 39.9489 0.347992L40.4289 0.359992C40.5249 0.367992 40.6689 0.371992 40.8609 0.371992L41.6289 0.359992C41.7249 0.351992 41.8369 0.347992 41.9649 0.347992C42.0289 0.347992 42.0769 0.363992 42.1089 0.395991C42.1409 0.427991 42.1889 0.491992 42.2529 0.587992C42.3889 0.771992 42.4889 0.899992 42.5529 0.971992L47.1009 6.32399L47.1969 8.01599ZM47.1969 8.01599L46.8729 7.65599V1.81199C46.8729 1.38799 46.7889 1.06399 46.6209 0.839991C46.4609 0.607991 46.2209 0.491992 45.9009 0.491992C45.8849 0.491992 45.8769 0.467992 45.8769 0.419992C45.8769 0.371992 45.8849 0.347992 45.9009 0.347992L46.3929 0.359992C46.6489 0.375992 46.8609 0.383991 47.0289 0.383991C47.1809 0.383991 47.4009 0.375992 47.6889 0.359992L48.1929 0.347992C48.2169 0.347992 48.2289 0.371992 48.2289 0.419992C48.2289 0.467992 48.2169 0.491992 48.1929 0.491992C47.8729 0.491992 47.6249 0.607991 47.4489 0.839991C47.2809 1.06399 47.1969 1.38799 47.1969 1.81199V8.01599ZM50.41 0.599992C49.922 0.599992 49.522 0.751992 49.21 1.05599C48.898 1.35199 48.658 1.79999 48.49 2.39999C48.49 2.42399 48.466 2.43599 48.418 2.43599C48.378 2.42799 48.358 2.41599 48.358 2.39999C48.39 2.08799 48.426 1.68799 48.466 1.19999C48.506 0.703991 48.526 0.331991 48.526 0.0839918C48.526 0.0439918 48.546 0.0239918 48.586 0.0239918C48.634 0.0239918 48.658 0.0439918 48.658 0.0839918C48.658 0.259992 48.882 0.347992 49.33 0.347992C50.018 0.371992 50.822 0.383991 51.742 0.383991C52.214 0.383991 52.714 0.375992 53.242 0.359992L54.058 0.347992C54.362 0.347992 54.582 0.327992 54.718 0.287991C54.862 0.247991 54.954 0.167991 54.994 0.0479915C55.002 0.0159914 55.026 -8.58307e-06 55.066 -8.58307e-06C55.106 -8.58307e-06 55.126 0.0159914 55.126 0.0479915C55.102 0.295992 55.078 0.671992 55.054 1.17599C55.03 1.67999 55.018 2.08799 55.018 2.39999C55.018 2.41599 54.994 2.42399 54.946 2.42399C54.906 2.42399 54.882 2.41599 54.874 2.39999C54.794 1.78399 54.606 1.33199 54.31 1.04399C54.014 0.747992 53.614 0.599992 53.11 0.599992C52.886 0.599992 52.718 0.619992 52.606 0.659992C52.502 0.699991 52.43 0.771991 52.39 0.875992C52.35 0.971992 52.33 1.12799 52.33 1.34399V6.87599C52.33 7.11599 52.354 7.29599 52.402 7.41599C52.458 7.52799 52.558 7.60399 52.702 7.64399C52.846 7.68399 53.074 7.70399 53.386 7.70399C53.41 7.70399 53.422 7.72799 53.422 7.77599C53.422 7.82399 53.41 7.84799 53.386 7.84799C53.106 7.84799 52.886 7.84399 52.726 7.83599L51.742 7.82399L50.806 7.83599C50.638 7.84399 50.406 7.84799 50.11 7.84799C50.094 7.84799 50.086 7.82399 50.086 7.77599C50.086 7.72799 50.094 7.70399 50.11 7.70399C50.422 7.70399 50.65 7.68399 50.794 7.64399C50.946 7.60399 51.046 7.52799 51.094 7.41599C51.15 7.29599 51.178 7.11599 51.178 6.87599V1.31999C51.178 1.11199 51.158 0.959991 51.118 0.863992C51.078 0.759992 51.006 0.691992 50.902 0.659992C50.798 0.619992 50.634 0.599992 50.41 0.599992ZM60.3938 1.87199C60.5938 1.54399 60.6938 1.25999 60.6938 1.01999C60.6938 0.667992 60.4738 0.491992 60.0338 0.491992C60.0178 0.491992 60.0098 0.467992 60.0098 0.419992C60.0098 0.371992 60.0178 0.347992 60.0338 0.347992L60.6578 0.359992C60.9938 0.375992 61.3018 0.383991 61.5818 0.383991C61.7178 0.383991 61.8818 0.375992 62.0738 0.359992L62.5178 0.347992C62.5338 0.347992 62.5418 0.371992 62.5418 0.419992C62.5418 0.467992 62.5338 0.491992 62.5178 0.491992C62.2538 0.491992 61.9538 0.631992 61.6178 0.911992C61.2818 1.18399 60.9818 1.53599 60.7178 1.96799L59.0498 4.66799L58.8098 4.47599L60.3938 1.87199ZM56.3738 1.61999C56.1018 1.19599 55.8658 0.903992 55.6658 0.743992C55.4738 0.575992 55.2858 0.491992 55.1018 0.491992C55.0778 0.491992 55.0658 0.467992 55.0658 0.419992C55.0658 0.371992 55.0778 0.347992 55.1018 0.347992L55.4978 0.359992C55.6738 0.375992 55.8018 0.383991 55.8818 0.383991C56.1458 0.383991 56.5258 0.375992 57.0218 0.359992L57.7778 0.347992C57.7938 0.347992 57.8018 0.371992 57.8018 0.419992C57.8018 0.467992 57.7938 0.491992 57.7778 0.491992C57.4418 0.491992 57.2738 0.599992 57.2738 0.815992C57.2738 0.911992 57.3258 1.04399 57.4298 1.21199L59.2658 4.03199L58.3058 4.57199L56.3738 1.61999ZM59.3498 4.01999V6.87599C59.3498 7.12399 59.3698 7.30399 59.4098 7.41599C59.4498 7.52799 59.5298 7.60399 59.6498 7.64399C59.7778 7.68399 59.9778 7.70399 60.2498 7.70399C60.2738 7.70399 60.2858 7.72799 60.2858 7.77599C60.2858 7.82399 60.2738 7.84799 60.2498 7.84799C59.9938 7.84799 59.7938 7.84399 59.6498 7.83599L58.7738 7.82399L57.9098 7.83599C57.7498 7.84399 57.5378 7.84799 57.2738 7.84799C57.2578 7.84799 57.2498 7.82399 57.2498 7.77599C57.2498 7.72799 57.2578 7.70399 57.2738 7.70399C57.5458 7.70399 57.7458 7.68399 57.8738 7.64399C58.0018 7.60399 58.0898 7.52799 58.1378 7.41599C58.1858 7.29599 58.2098 7.11599 58.2098 6.87599V4.12799L59.3498 4.01999ZM63.4603 0.623991L63.7843 0.647992V6.39599C63.7843 6.81999 63.8643 7.14399 64.0243 7.36799C64.1923 7.59199 64.4363 7.70399 64.7563 7.70399C64.7803 7.70399 64.7923 7.72799 64.7923 7.77599C64.7923 7.82399 64.7803 7.84799 64.7563 7.84799C64.5483 7.84799 64.3883 7.84399 64.2763 7.83599L63.6403 7.82399L62.9323 7.83599C62.8043 7.84399 62.6203 7.84799 62.3803 7.84799C62.3563 7.84799 62.3443 7.82399 62.3443 7.77599C62.3443 7.72799 62.3563 7.70399 62.3803 7.70399C62.7243 7.70399 62.9883 7.59199 63.1723 7.36799C63.3643 7.14399 63.4603 6.81999 63.4603 6.39599V0.623991ZM69.5563 8.01599C69.5563 8.03999 69.5363 8.05599 69.4963 8.06399C69.4563 8.07199 69.4283 8.06799 69.4123 8.05199L63.6403 1.33199C63.3683 1.01999 63.1283 0.803992 62.9203 0.683992C62.7123 0.555992 62.5083 0.491992 62.3083 0.491992C62.2843 0.491992 62.2723 0.467992 62.2723 0.419992C62.2723 0.371992 62.2843 0.347992 62.3083 0.347992L62.7883 0.359992C62.8843 0.367992 63.0283 0.371992 63.2203 0.371992L63.9883 0.359992C64.0843 0.351992 64.1963 0.347992 64.3243 0.347992C64.3883 0.347992 64.4363 0.363992 64.4683 0.395991C64.5003 0.427991 64.5483 0.491992 64.6123 0.587992C64.7483 0.771992 64.8483 0.899992 64.9123 0.971992L69.4603 6.32399L69.5563 8.01599ZM69.5563 8.01599L69.2323 7.65599V1.81199C69.2323 1.38799 69.1483 1.06399 68.9803 0.839991C68.8203 0.607991 68.5803 0.491992 68.2603 0.491992C68.2443 0.491992 68.2363 0.467992 68.2363 0.419992C68.2363 0.371992 68.2443 0.347992 68.2603 0.347992L68.7523 0.359992C69.0083 0.375992 69.2203 0.383991 69.3883 0.383991C69.5403 0.383991 69.7603 0.375992 70.0483 0.359992L70.5523 0.347992C70.5763 0.347992 70.5883 0.371992 70.5883 0.419992C70.5883 0.467992 70.5763 0.491992 70.5523 0.491992C70.2323 0.491992 69.9843 0.607991 69.8083 0.839991C69.6403 1.06399 69.5563 1.38799 69.5563 1.81199V8.01599ZM76.9539 7.99199C76.2099 7.99199 75.5459 7.81999 74.9619 7.47599C74.3859 7.12399 73.9379 6.65199 73.6179 6.05999C73.3059 5.45999 73.1499 4.80799 73.1499 4.10399C73.1499 3.27999 73.3579 2.57599 73.7739 1.99199C74.1899 1.39999 74.7219 0.955992 75.3699 0.659992C76.0259 0.363991 76.6939 0.215991 77.3739 0.215991C78.1339 0.215991 78.8019 0.395992 79.3779 0.755992C79.9539 1.10799 80.3939 1.57599 80.6979 2.15999C81.0099 2.74399 81.1659 3.36399 81.1659 4.01999C81.1659 4.74799 80.9739 5.41599 80.5899 6.02399C80.2059 6.63199 79.6899 7.11199 79.0419 7.46399C78.4019 7.81599 77.7059 7.99199 76.9539 7.99199ZM77.3619 7.70399C77.8419 7.70399 78.2699 7.57599 78.6459 7.31999C79.0299 7.05599 79.3299 6.67199 79.5459 6.16799C79.7699 5.66399 79.8819 5.06399 79.8819 4.36799C79.8819 3.62399 79.7579 2.96399 79.5099 2.38799C79.2699 1.80399 78.9219 1.34799 78.4659 1.01999C78.0179 0.691992 77.4899 0.527992 76.8819 0.527992C76.0979 0.527992 75.4939 0.807992 75.0699 1.36799C74.6459 1.91999 74.4339 2.68799 74.4339 3.67199C74.4339 4.43999 74.5579 5.13199 74.8059 5.74799C75.0539 6.35599 75.4019 6.83599 75.8499 7.18799C76.2979 7.53199 76.8019 7.70399 77.3619 7.70399ZM83.2174 1.61999C83.2174 1.91599 83.2894 2.17999 83.4334 2.41199C83.5854 2.63599 83.7694 2.83199 83.9854 2.99999C84.2014 3.15999 84.4974 3.35999 84.8734 3.59999C85.2814 3.85599 85.6014 4.07599 85.8334 4.25999C86.0734 4.44399 86.2774 4.67199 86.4454 4.94399C86.6134 5.20799 86.6974 5.51999 86.6974 5.87999C86.6974 6.28799 86.5894 6.65199 86.3734 6.97199C86.1654 7.29199 85.8654 7.54399 85.4734 7.72799C85.0894 7.90399 84.6494 7.99199 84.1534 7.99199C83.8174 7.99199 83.4694 7.94799 83.1094 7.85999C82.7574 7.77199 82.4894 7.66399 82.3054 7.53599C82.2334 7.48799 82.1934 7.41199 82.1854 7.30799L82.1134 5.49599V5.48399C82.1134 5.45199 82.1334 5.43599 82.1734 5.43599C82.2134 5.42799 82.2374 5.43999 82.2454 5.47199C82.5094 6.12799 82.8094 6.66799 83.1454 7.09199C83.4894 7.51599 83.9214 7.72799 84.4414 7.72799C84.7934 7.72799 85.0854 7.63599 85.3174 7.45199C85.5494 7.25999 85.6654 6.94399 85.6654 6.50399C85.6654 6.15199 85.5854 5.84399 85.4254 5.57999C85.2734 5.31599 85.0814 5.09599 84.8494 4.91999C84.6254 4.74399 84.3174 4.52799 83.9254 4.27199C83.5414 4.02399 83.2414 3.81599 83.0254 3.64799C82.8094 3.47199 82.6254 3.25999 82.4734 3.01199C82.3214 2.75599 82.2454 2.45999 82.2454 2.12399C82.2454 1.70799 82.3614 1.35599 82.5934 1.06799C82.8254 0.779992 83.1254 0.567992 83.4934 0.431992C83.8694 0.287992 84.2614 0.215991 84.6694 0.215991C84.9334 0.215991 85.2014 0.243992 85.4734 0.299992C85.7454 0.347992 85.9774 0.411992 86.1694 0.491992C86.2894 0.539991 86.3494 0.615991 86.3494 0.719991L86.3734 2.33999C86.3734 2.37199 86.3534 2.39199 86.3134 2.39999C86.2814 2.40799 86.2574 2.39999 86.2414 2.37599C86.0814 1.88799 85.8654 1.44799 85.5934 1.05599C85.3294 0.655991 84.9294 0.455991 84.3934 0.455991C84.0334 0.455991 83.7454 0.563991 83.5294 0.779991C83.3214 0.987992 83.2174 1.26799 83.2174 1.61999ZM89.3514 0.599992C88.8634 0.599992 88.4634 0.751992 88.1514 1.05599C87.8394 1.35199 87.5994 1.79999 87.4314 2.39999C87.4314 2.42399 87.4074 2.43599 87.3594 2.43599C87.3194 2.42799 87.2994 2.41599 87.2994 2.39999C87.3314 2.08799 87.3674 1.68799 87.4074 1.19999C87.4474 0.703991 87.4674 0.331991 87.4674 0.0839918C87.4674 0.0439918 87.4874 0.0239918 87.5274 0.0239918C87.5754 0.0239918 87.5994 0.0439918 87.5994 0.0839918C87.5994 0.259992 87.8234 0.347992 88.2714 0.347992C88.9594 0.371992 89.7634 0.383991 90.6834 0.383991C91.1554 0.383991 91.6554 0.375992 92.1834 0.359992L92.9994 0.347992C93.3034 0.347992 93.5234 0.327992 93.6594 0.287991C93.8034 0.247991 93.8954 0.167991 93.9354 0.0479915C93.9434 0.0159914 93.9674 -8.58307e-06 94.0074 -8.58307e-06C94.0474 -8.58307e-06 94.0674 0.0159914 94.0674 0.0479915C94.0434 0.295992 94.0194 0.671992 93.9954 1.17599C93.9714 1.67999 93.9594 2.08799 93.9594 2.39999C93.9594 2.41599 93.9354 2.42399 93.8874 2.42399C93.8474 2.42399 93.8234 2.41599 93.8154 2.39999C93.7354 1.78399 93.5474 1.33199 93.2514 1.04399C92.9554 0.747992 92.5554 0.599992 92.0514 0.599992C91.8274 0.599992 91.6594 0.619992 91.5474 0.659992C91.4434 0.699991 91.3714 0.771991 91.3314 0.875992C91.2914 0.971992 91.2714 1.12799 91.2714 1.34399V6.87599C91.2714 7.11599 91.2954 7.29599 91.3434 7.41599C91.3994 7.52799 91.4994 7.60399 91.6434 7.64399C91.7874 7.68399 92.0154 7.70399 92.3274 7.70399C92.3514 7.70399 92.3634 7.72799 92.3634 7.77599C92.3634 7.82399 92.3514 7.84799 92.3274 7.84799C92.0474 7.84799 91.8274 7.84399 91.6674 7.83599L90.6834 7.82399L89.7474 7.83599C89.5794 7.84399 89.3474 7.84799 89.0514 7.84799C89.0354 7.84799 89.0274 7.82399 89.0274 7.77599C89.0274 7.72799 89.0354 7.70399 89.0514 7.70399C89.3634 7.70399 89.5914 7.68399 89.7354 7.64399C89.8874 7.60399 89.9874 7.52799 90.0354 7.41599C90.0914 7.29599 90.1194 7.11599 90.1194 6.87599V1.31999C90.1194 1.11199 90.0994 0.959991 90.0594 0.863992C90.0194 0.759992 89.9474 0.691992 89.8434 0.659992C89.7394 0.619992 89.5754 0.599992 89.3514 0.599992ZM95.4674 4.60799H98.8274L98.9114 4.90799H95.3114L95.4674 4.60799ZM101.695 7.70399C101.727 7.70399 101.743 7.72799 101.743 7.77599C101.743 7.82399 101.727 7.84799 101.695 7.84799C101.543 7.84799 101.299 7.83999 100.963 7.82399C100.627 7.80799 100.383 7.79999 100.231 7.79999C100.031 7.79999 99.7954 7.80799 99.5234 7.82399C99.2514 7.83999 99.0394 7.84799 98.8874 7.84799C98.8554 7.84799 98.8394 7.82399 98.8394 7.77599C98.8394 7.72799 98.8554 7.70399 98.8874 7.70399C99.1274 7.70399 99.2994 7.67999 99.4034 7.63199C99.5074 7.57599 99.5594 7.48799 99.5594 7.36799C99.5594 7.24799 99.4914 7.04399 99.3554 6.75599L96.8474 1.65599L97.3394 0.851992L94.9634 6.20399C94.8594 6.44399 94.8074 6.65999 94.8074 6.85199C94.8074 7.13199 94.9074 7.34399 95.1074 7.48799C95.3074 7.63199 95.5874 7.70399 95.9474 7.70399C95.9874 7.70399 96.0074 7.72799 96.0074 7.77599C96.0074 7.82399 95.9874 7.84799 95.9474 7.84799C95.8034 7.84799 95.5954 7.83999 95.3234 7.82399C95.0194 7.80799 94.7554 7.79999 94.5314 7.79999C94.3154 7.79999 94.0634 7.80799 93.7754 7.82399C93.5194 7.83999 93.3074 7.84799 93.1394 7.84799C93.0994 7.84799 93.0794 7.82399 93.0794 7.77599C93.0794 7.72799 93.0994 7.70399 93.1394 7.70399C93.3634 7.70399 93.5514 7.65999 93.7034 7.57199C93.8554 7.48399 94.0034 7.32799 94.1474 7.10399C94.2914 6.87199 94.4634 6.53199 94.6634 6.08399L97.2434 0.275991C97.2594 0.251992 97.2954 0.239992 97.3514 0.239992C97.4074 0.239992 97.4394 0.251992 97.4474 0.275991L100.387 6.20399C100.659 6.77999 100.887 7.17599 101.071 7.39199C101.263 7.59999 101.471 7.70399 101.695 7.70399ZM103.691 6.82799C103.691 7.08399 103.719 7.27199 103.775 7.39199C103.839 7.50399 103.955 7.58399 104.123 7.63199C104.299 7.67999 104.571 7.70399 104.939 7.70399C104.963 7.70399 104.975 7.72799 104.975 7.77599C104.975 7.82399 104.963 7.84799 104.939 7.84799C104.611 7.84799 104.355 7.84399 104.171 7.83599L103.127 7.82399L102.263 7.83599C102.111 7.84399 101.903 7.84799 101.639 7.84799C101.615 7.84799 101.603 7.82399 101.603 7.77599C101.603 7.72799 101.615 7.70399 101.639 7.70399C101.911 7.70399 102.107 7.68399 102.227 7.64399C102.355 7.60399 102.439 7.52799 102.479 7.41599C102.527 7.29599 102.551 7.11599 102.551 6.87599V1.31999C102.551 1.07999 102.527 0.903992 102.479 0.791992C102.439 0.679991 102.355 0.603991 102.227 0.563991C102.099 0.515991 101.903 0.491992 101.639 0.491992C101.615 0.491992 101.603 0.467992 101.603 0.419992C101.603 0.371992 101.615 0.347992 101.639 0.347992L102.263 0.359992C102.615 0.375992 102.899 0.383991 103.115 0.383991C103.299 0.383991 103.523 0.371992 103.787 0.347992C103.883 0.339992 104.011 0.331991 104.171 0.323992C104.339 0.315992 104.535 0.311992 104.759 0.311992C105.543 0.311992 106.167 0.479992 106.631 0.815992C107.095 1.15199 107.327 1.66799 107.327 2.36399C107.327 2.86799 107.195 3.29599 106.931 3.64799C106.675 3.99999 106.343 4.26399 105.935 4.43999C105.535 4.61599 105.123 4.70399 104.699 4.70399C104.475 4.70399 104.283 4.68399 104.123 4.64399C104.107 4.64399 104.099 4.62399 104.099 4.58399C104.099 4.55999 104.103 4.53599 104.111 4.51199C104.127 4.48799 104.143 4.47999 104.159 4.48799C104.279 4.51999 104.419 4.53599 104.579 4.53599C104.995 4.53599 105.347 4.36399 105.635 4.01999C105.923 3.67599 106.067 3.18399 106.067 2.54399C106.067 1.91199 105.919 1.42399 105.623 1.07999C105.335 0.727992 104.927 0.551991 104.399 0.551991C104.207 0.551991 104.059 0.571991 103.955 0.611991C103.859 0.651991 103.791 0.727991 103.751 0.839991C103.711 0.943991 103.691 1.11199 103.691 1.34399V6.82799ZM107.785 7.84799C107.761 7.84799 107.749 7.82399 107.749 7.77599C107.749 7.72799 107.761 7.70399 107.785 7.70399C108.057 7.70399 108.253 7.68399 108.373 7.64399C108.501 7.60399 108.585 7.52799 108.625 7.41599C108.673 7.29599 108.697 7.11599 108.697 6.87599V1.31999C108.697 1.07999 108.673 0.903992 108.625 0.791992C108.585 0.679991 108.501 0.603991 108.373 0.563991C108.245 0.515991 108.049 0.491992 107.785 0.491992C107.761 0.491992 107.749 0.467992 107.749 0.419992C107.749 0.371992 107.761 0.347992 107.785 0.347992H112.777C112.857 0.347992 112.897 0.383992 112.897 0.455991L112.921 2.01599C112.921 2.03199 112.897 2.04399 112.849 2.05199C112.809 2.05199 112.785 2.03999 112.777 2.01599C112.585 1.11199 112.033 0.659992 111.121 0.659992H110.629C110.333 0.659992 110.125 0.711992 110.005 0.815992C109.893 0.919992 109.837 1.09599 109.837 1.34399V6.82799C109.837 7.09199 109.885 7.27599 109.981 7.37999C110.085 7.48399 110.265 7.53599 110.521 7.53599H111.109C112.181 7.53599 112.861 7.01999 113.149 5.98799C113.149 5.97199 113.169 5.96399 113.209 5.96399C113.265 5.96399 113.293 5.97599 113.293 5.99999C113.213 6.60799 113.173 7.16399 113.173 7.66799C113.173 7.73199 113.161 7.77999 113.137 7.81199C113.113 7.83599 113.065 7.84799 112.993 7.84799H107.785ZM112.321 5.13599C112.321 4.44799 111.873 4.10399 110.977 4.10399H109.297V3.79199H110.989C111.869 3.79199 112.309 3.49599 112.309 2.90399C112.309 2.87999 112.329 2.86799 112.369 2.86799C112.417 2.86799 112.441 2.87999 112.441 2.90399L112.429 3.94799L112.441 4.51199C112.457 4.76799 112.465 4.97599 112.465 5.13599C112.465 5.15199 112.441 5.15999 112.393 5.15999C112.345 5.15999 112.321 5.15199 112.321 5.13599ZM114.843 0.623991L115.167 0.647992V6.39599C115.167 6.81999 115.247 7.14399 115.407 7.36799C115.575 7.59199 115.819 7.70399 116.139 7.70399C116.163 7.70399 116.175 7.72799 116.175 7.77599C116.175 7.82399 116.163 7.84799 116.139 7.84799C115.931 7.84799 115.771 7.84399 115.659 7.83599L115.023 7.82399L114.315 7.83599C114.187 7.84399 114.003 7.84799 113.763 7.84799C113.739 7.84799 113.727 7.82399 113.727 7.77599C113.727 7.72799 113.739 7.70399 113.763 7.70399C114.107 7.70399 114.371 7.59199 114.555 7.36799C114.747 7.14399 114.843 6.81999 114.843 6.39599V0.623991ZM120.939 8.01599C120.939 8.03999 120.919 8.05599 120.879 8.06399C120.839 8.07199 120.811 8.06799 120.795 8.05199L115.023 1.33199C114.751 1.01999 114.511 0.803992 114.303 0.683992C114.095 0.555992 113.891 0.491992 113.691 0.491992C113.667 0.491992 113.655 0.467992 113.655 0.419992C113.655 0.371992 113.667 0.347992 113.691 0.347992L114.171 0.359992C114.267 0.367992 114.411 0.371992 114.603 0.371992L115.371 0.359992C115.467 0.351992 115.579 0.347992 115.707 0.347992C115.771 0.347992 115.819 0.363992 115.851 0.395991C115.883 0.427991 115.931 0.491992 115.995 0.587992C116.131 0.771992 116.231 0.899992 116.295 0.971992L120.843 6.32399L120.939 8.01599ZM120.939 8.01599L120.615 7.65599V1.81199C120.615 1.38799 120.531 1.06399 120.363 0.839991C120.203 0.607991 119.963 0.491992 119.643 0.491992C119.627 0.491992 119.619 0.467992 119.619 0.419992C119.619 0.371992 119.627 0.347992 119.643 0.347992L120.135 0.359992C120.391 0.375992 120.603 0.383991 120.771 0.383991C120.923 0.383991 121.143 0.375992 121.431 0.359992L121.935 0.347992C121.959 0.347992 121.971 0.371992 121.971 0.419992C121.971 0.467992 121.959 0.491992 121.935 0.491992C121.615 0.491992 121.367 0.607991 121.191 0.839991C121.023 1.06399 120.939 1.38799 120.939 1.81199V8.01599ZM122.94 1.31999C122.94 1.07999 122.916 0.903992 122.868 0.791992C122.828 0.679991 122.744 0.603991 122.616 0.563991C122.488 0.515991 122.292 0.491992 122.028 0.491992C122.012 0.491992 122.004 0.467992 122.004 0.419992C122.004 0.371992 122.012 0.347992 122.028 0.347992L122.664 0.359992C123.016 0.375992 123.296 0.383991 123.504 0.383991C123.744 0.383991 124.04 0.375992 124.392 0.359992L124.992 0.347992C125.016 0.347992 125.028 0.371992 125.028 0.419992C125.028 0.467992 125.016 0.491992 124.992 0.491992C124.728 0.491992 124.532 0.515991 124.404 0.563991C124.284 0.611992 124.2 0.695992 124.152 0.815992C124.104 0.927992 124.08 1.10399 124.08 1.34399V6.87599C124.08 7.12399 124.1 7.30399 124.14 7.41599C124.188 7.52799 124.272 7.60399 124.392 7.64399C124.52 7.68399 124.72 7.70399 124.992 7.70399C125.024 7.70399 125.04 7.72799 125.04 7.77599C125.04 7.82399 125.024 7.84799 124.992 7.84799C124.736 7.84799 124.532 7.84399 124.38 7.83599L123.504 7.82399L122.652 7.83599C122.5 7.84399 122.288 7.84799 122.016 7.84799C122 7.84799 121.992 7.82399 121.992 7.77599C121.992 7.72799 122 7.70399 122.016 7.70399C122.288 7.70399 122.484 7.68399 122.604 7.64399C122.732 7.60399 122.82 7.52799 122.868 7.41599C122.916 7.29599 122.94 7.11599 122.94 6.87599V1.31999ZM124.32 3.82799L125.16 3.05999L126.96 5.44799C127.504 6.19199 127.916 6.71999 128.196 7.03199C128.476 7.33599 128.696 7.52399 128.856 7.59599C129.016 7.66799 129.232 7.70399 129.504 7.70399C129.528 7.70399 129.54 7.72799 129.54 7.77599C129.54 7.82399 129.528 7.84799 129.504 7.84799H128.16L127.692 7.85999C127.58 7.85999 127.484 7.83599 127.404 7.78799C127.324 7.73999 127.232 7.65199 127.128 7.52399C127.024 7.39599 126.832 7.14399 126.552 6.76799L126.06 6.10799L124.32 3.82799ZM126.444 1.48799C126.692 1.24799 126.816 1.03999 126.816 0.863992C126.816 0.751992 126.752 0.663992 126.624 0.599992C126.504 0.527992 126.324 0.491992 126.084 0.491992C126.068 0.491992 126.06 0.467992 126.06 0.419992C126.06 0.371992 126.068 0.347992 126.084 0.347992L126.624 0.359992C126.976 0.375992 127.296 0.383991 127.584 0.383991C127.896 0.383991 128.212 0.375992 128.532 0.359992L129.048 0.347992C129.072 0.347992 129.084 0.371992 129.084 0.419992C129.084 0.467992 129.072 0.491992 129.048 0.491992C128.696 0.491992 128.308 0.587991 127.884 0.779991C127.468 0.963991 127.088 1.22399 126.744 1.55999L123.672 4.65599L123.348 4.63199L126.444 1.48799ZM132.942 7.99199C132.198 7.99199 131.534 7.81999 130.95 7.47599C130.374 7.12399 129.926 6.65199 129.606 6.05999C129.294 5.45999 129.138 4.80799 129.138 4.10399C129.138 3.27999 129.346 2.57599 129.762 1.99199C130.178 1.39999 130.71 0.955992 131.358 0.659992C132.014 0.363991 132.682 0.215991 133.362 0.215991C134.122 0.215991 134.79 0.395992 135.366 0.755992C135.942 1.10799 136.382 1.57599 136.686 2.15999C136.998 2.74399 137.154 3.36399 137.154 4.01999C137.154 4.74799 136.962 5.41599 136.578 6.02399C136.194 6.63199 135.678 7.11199 135.03 7.46399C134.39 7.81599 133.694 7.99199 132.942 7.99199ZM133.35 7.70399C133.83 7.70399 134.258 7.57599 134.634 7.31999C135.018 7.05599 135.318 6.67199 135.534 6.16799C135.758 5.66399 135.87 5.06399 135.87 4.36799C135.87 3.62399 135.746 2.96399 135.498 2.38799C135.258 1.80399 134.91 1.34799 134.454 1.01999C134.006 0.691992 133.478 0.527992 132.87 0.527992C132.086 0.527992 131.482 0.807992 131.058 1.36799C130.634 1.91999 130.422 2.68799 130.422 3.67199C130.422 4.43999 130.546 5.13199 130.794 5.74799C131.042 6.35599 131.39 6.83599 131.838 7.18799C132.286 7.53199 132.79 7.70399 133.35 7.70399ZM138.052 7.97999C137.852 7.97999 137.692 7.91999 137.572 7.79999C137.452 7.67999 137.392 7.51999 137.392 7.31999C137.392 7.12799 137.452 6.97599 137.572 6.86399C137.692 6.75199 137.852 6.69599 138.052 6.69599C138.26 6.69599 138.42 6.75199 138.532 6.86399C138.644 6.97599 138.7 7.12799 138.7 7.31999C138.7 7.52799 138.644 7.69199 138.532 7.81199C138.42 7.92399 138.26 7.97999 138.052 7.97999Z" fill="black"/>
</svg>
